<svg width="113" height="99" viewBox="0 0 113 99" fill="none" xmlns="http://www.w3.org/2000/svg">
<g id="Isolation_Mode" clip-path="url(#clip0_17_11263)">
<path id="Vector" d="M114.003 26.5641C112.881 30.9453 111.746 35.3235 110.636 39.7078C109.56 43.9537 108.496 48.2036 107.443 52.4575C107.164 53.5882 106.513 54.3459 105.322 54.4632C104.325 54.5594 103.5 54.1144 103.182 53.1762C102.988 52.5404 102.971 51.8637 103.131 51.2186C105.112 43.1839 107.14 35.1612 109.154 27.1354C109.226 26.8347 109.301 26.5551 109.37 26.2634C109.778 24.4592 109.307 23.6774 107.509 23.2233C104.1 22.3693 100.688 21.5364 97.2795 20.6884C94.5998 20.0238 91.9201 19.3473 89.0753 18.6346C89.0753 20.0238 89.0393 21.3139 89.1023 22.6039C89.1023 22.9196 89.4024 23.2594 89.6544 23.527C92.2861 26.5009 94.9119 29.4809 97.5886 32.4157C98.4888 33.39 98.6569 34.3673 98.2158 35.6032C96.6193 40.0806 95.0349 44.5641 93.5405 49.0746C93.0454 50.5781 92.2111 51.4802 90.6237 51.5644C89.3934 51.6336 89.0273 52.1839 89.0363 53.4619C89.0993 63.4752 89.0723 73.4916 89.0693 83.505C89.0693 88.1598 86.3116 90.9263 81.6783 90.9323C79.8598 90.9323 78.0413 90.9323 76.2048 91.1127C80.8771 92.2403 85.5463 93.395 90.2276 94.4836C91.3709 94.7482 92.3282 93.9453 92.7003 92.5531C93.8256 88.1628 94.9239 83.7696 96.0312 79.3763C96.6733 76.8354 97.3005 74.2885 97.9547 71.7505C98.3628 70.1628 99.4551 69.396 100.781 69.7358C102.108 70.0756 102.699 71.2664 102.3 72.8721C100.544 79.8815 98.7979 86.8939 96.9914 93.8912C96.0222 97.6379 92.5352 99.6917 88.7752 98.7896C78.4554 96.3118 68.1447 93.795 57.8189 91.3412C56.9618 91.1443 56.0713 91.1443 55.2142 91.3412C44.9214 93.7799 34.6466 96.2848 24.3598 98.7505C20.2968 99.7248 16.9178 97.6259 15.8796 93.4883C11.6664 76.7472 7.46529 60.0081 3.27616 43.2711C1.97381 38.077 0.673462 32.8838 -0.624888 27.6917C-1.7952 23.0339 -0.0247381 20.0058 4.61451 18.8361C10.5921 17.3326 16.5758 15.829 22.5684 14.3857C23.5947 14.1361 24.0508 13.7843 23.9817 12.6266C23.8677 10.681 23.9307 8.71746 23.9578 6.77492C23.9501 5.88098 24.1207 4.99451 24.4598 4.16761C24.7988 3.3407 25.2994 2.59003 25.932 1.95971C26.5647 1.3294 27.3167 0.83215 28.1438 0.497181C28.9709 0.162211 29.8565 -0.00371881 30.7486 0.00913704C47.9312 -0.00890506 65.1128 -0.00890506 82.2934 0.00913704C86.1285 0.00913704 89.0333 2.94098 89.0843 6.77793C89.1143 8.84075 89.1233 10.9036 89.0843 12.9664C89.0633 13.7302 89.2553 14.0489 90.0595 14.2444C96.0882 15.6967 102.093 17.2514 108.127 18.7008C111.044 19.3954 113.154 20.8899 114.033 23.8608L114.003 26.5641ZM28.423 45.4181V83.5681C28.423 85.643 29.2062 86.4278 31.2677 86.4278C48.0722 86.4278 64.8768 86.4278 81.6813 86.4278C83.8089 86.4278 84.5651 85.658 84.5651 83.4959C84.5651 58.1388 84.5651 32.7796 84.5651 7.41843C84.5651 5.25037 83.8239 4.50463 81.6663 4.50463H31.3607C29.1461 4.50463 28.42 5.24134 28.42 7.48759L28.423 45.4181ZM36.7562 91.1247L36.7772 90.9263H31.2857C26.7215 90.9263 23.9337 88.1388 23.9307 83.5801C23.9307 73.6029 23.9307 63.6276 23.9307 53.6543C23.9307 51.8862 23.9307 51.8321 22.2353 51.5494C20.8249 51.3239 19.9997 50.6323 19.5345 49.243C18.0041 44.6633 16.3987 40.1107 14.7752 35.5641C14.3311 34.3222 14.5382 33.3569 15.4264 32.3857C18.0762 29.4809 20.6748 26.525 23.2855 23.5841C23.5256 23.3105 23.8857 22.9827 23.8857 22.682C23.9517 21.365 23.9127 20.0419 23.9127 18.6286C17.8661 20.1321 11.9935 21.5875 6.12393 23.0579C3.39619 23.7405 3.12312 24.2607 3.80131 27.0151C8.34853 45.0973 12.8927 63.1775 17.434 81.2557C18.3822 85.0325 19.3275 88.8093 20.3058 92.5771C20.6779 93.9994 21.6981 94.7362 22.9225 94.4475C27.5407 93.374 32.1469 92.2464 36.7532 91.1308L36.7562 91.1247ZM23.6817 47.2223L23.8377 47.1501V29.7696C22.4363 31.3332 21.191 32.7766 19.8856 34.1628C19.3965 34.683 19.3845 35.1311 19.6126 35.7716C20.8669 39.2928 22.0732 42.8321 23.3036 46.3653C23.4026 46.651 23.5496 46.9276 23.6787 47.2133L23.6817 47.2223ZM89.0993 47.3937C89.3334 47.1261 89.4324 47.0599 89.4654 46.9697C90.8138 43.1207 92.1551 39.2707 93.4895 35.4198C93.5675 35.1912 93.6155 34.8184 93.4895 34.68C92.0971 33.0562 90.6687 31.4625 89.0963 29.6884L89.0993 47.3937Z" fill="url(#paint0_linear_17_11263)"/>
<path id="Vector_2" d="M100.478 62.0197C100.477 61.7284 100.534 61.4397 100.647 61.171C100.759 60.9023 100.925 60.659 101.133 60.4558C101.341 60.2526 101.589 60.0936 101.86 59.9882C102.131 59.8829 102.42 59.8334 102.711 59.8427C103.297 59.8466 103.859 60.0809 104.275 60.4953C104.691 60.9098 104.928 61.4712 104.935 62.0588C104.926 62.666 104.678 63.2451 104.244 63.6694C103.81 64.0937 103.227 64.3287 102.621 64.3231C102.034 64.2958 101.482 64.0394 101.081 63.609C100.681 63.1785 100.464 62.6081 100.478 62.0197Z" fill="url(#paint1_linear_17_11263)"/>
<path id="Vector_3" d="M74.2423 31.5737C74.2423 34.4243 74.2183 37.272 74.2423 40.1196C74.2751 40.6445 74.1528 41.1674 73.8907 41.623C73.6287 42.0787 73.2385 42.4469 72.7689 42.6816C67.8476 45.5242 62.9352 48.3799 58.0319 51.2486C56.9366 51.8921 55.9764 51.85 54.8871 51.2125C50.0258 48.3458 45.1454 45.5092 40.2461 42.7027C39.7616 42.4606 39.3591 42.0807 39.0891 41.6106C38.819 41.1404 38.6933 40.6009 38.7277 40.0595C38.7577 34.3602 38.7577 28.6629 38.7277 22.9676C38.6938 22.4256 38.8204 21.8856 39.0916 21.4153C39.3628 20.9451 39.7665 20.5656 40.2521 20.3244C45.1775 17.4918 50.0908 14.6382 54.9921 11.7635C55.4253 11.4685 55.9357 11.3082 56.4595 11.3029C56.9832 11.2975 57.4968 11.4473 57.9359 11.7334C62.8712 14.6241 67.8176 17.4978 72.7749 20.3545C73.2437 20.5898 73.6328 20.9583 73.8938 21.4139C74.1548 21.8696 74.276 22.3922 74.2423 22.9165C74.2183 25.8032 74.2423 28.69 74.2423 31.5737ZM69.7411 31.6038C69.7411 29.2793 69.7741 26.9519 69.7081 24.6275C69.6862 24.3894 69.6135 24.1587 69.495 23.9512C69.3764 23.7437 69.2147 23.5641 69.0209 23.4247C65.1018 21.0912 61.1568 18.7979 57.1857 16.5446C56.9683 16.4443 56.7318 16.3923 56.4925 16.3923C56.2532 16.3923 56.0167 16.4443 55.7993 16.5446C51.8283 18.7959 47.8832 21.0892 43.9641 23.4247C43.7676 23.5622 43.6035 23.7411 43.4832 23.9489C43.363 24.1567 43.2895 24.3883 43.268 24.6275C43.2169 29.2042 43.2499 33.7808 43.2199 38.3545C43.194 38.6271 43.2538 38.9009 43.391 39.1377C43.5283 39.3744 43.736 39.5622 43.9852 39.6746C47.9122 41.9198 51.8263 44.1931 55.7273 46.4945C55.9494 46.6545 56.216 46.7407 56.4895 46.7407C56.763 46.7407 57.0297 46.6545 57.2517 46.4945C61.1488 44.1951 65.0618 41.9208 68.9909 39.6716C69.2414 39.5601 69.4503 39.3721 69.5877 39.1345C69.7252 38.8968 69.7841 38.6217 69.7561 38.3485C69.7261 36.1053 69.7501 33.853 69.7501 31.6038H69.7411Z" fill="url(#paint2_linear_17_11263)"/>
<path id="Vector_4" d="M41.8966 67.5196C41.8966 64.9366 41.8966 62.3505 41.8966 59.7675C41.8966 58.2129 42.7788 57.2085 44.1022 57.1845C45.4255 57.1604 46.3798 58.1949 46.3828 59.8066C46.3828 65.3916 46.3828 70.9757 46.3828 76.5587C46.3828 76.673 46.3828 76.7842 46.3828 76.8955C46.3138 78.1975 45.6086 79.1538 44.5253 79.4154C43.442 79.677 42.3707 79.1628 41.7705 77.978C40.5222 75.5062 39.3189 73.0134 38.0915 70.5326C37.9387 70.1764 37.7031 69.862 37.4043 69.6155V76.1798C37.4043 76.6279 37.4254 77.0819 37.4043 77.527C37.3771 78.114 37.1222 78.6672 36.694 79.0688C36.2658 79.4704 35.6981 79.6886 35.1117 79.677C34.5433 79.6648 34.0014 79.4337 33.5985 79.0316C33.1956 78.6296 32.9627 78.0875 32.9482 77.5179C32.8911 75.9813 32.9271 74.4448 32.9271 72.9082C32.9271 68.5961 32.9271 64.2861 32.9271 59.978C32.9271 58.4264 33.5273 57.5213 34.7276 57.2567C35.8169 57.0131 36.7442 57.5904 37.4283 58.9586C38.8487 61.8313 40.2651 64.706 41.6775 67.5828L41.8966 67.5196Z" fill="url(#paint3_linear_17_11263)"/>
<path id="Vector_5" d="M55.4182 61.677V65.9951C56.6185 65.9951 57.7498 65.9951 58.8961 65.9951C60.5346 66.0131 61.5579 66.8972 61.5699 68.2413C61.5819 69.5854 60.5556 70.4755 58.9201 70.4905C57.8008 70.4905 56.6815 70.4905 55.4272 70.4905C55.4062 70.9025 55.3762 71.2573 55.3762 71.6122C55.3762 73.5276 55.3972 75.4401 55.3612 77.3526C55.3372 78.7147 54.3679 79.674 53.1196 79.671C52.8186 79.6713 52.5208 79.6104 52.244 79.4922C51.9672 79.3739 51.7172 79.2006 51.5091 78.9828C51.3009 78.765 51.1391 78.5071 51.0332 78.2249C50.9273 77.9426 50.8796 77.6418 50.893 77.3405C50.8709 71.4127 50.8709 65.4859 50.893 59.56C50.893 58.0776 51.7932 57.1965 53.2936 57.1785C55.4262 57.1524 57.5598 57.1524 59.6944 57.1785C61.1287 57.1935 62.116 58.1528 62.095 59.4428C62.074 60.7328 61.0957 61.6439 59.6433 61.668C58.272 61.695 56.8946 61.677 55.4182 61.677Z" fill="url(#paint4_linear_17_11263)"/>
<path id="Vector_6" d="M71.0914 61.6739C70.2482 61.6739 69.543 61.704 68.8408 61.6739C68.253 61.6692 67.6906 61.4333 67.2747 61.0171C66.8588 60.6009 66.6227 60.0377 66.6172 59.4487C66.6112 59.1566 66.6634 58.8663 66.7705 58.5946C66.8776 58.3229 67.0377 58.0753 67.2413 57.8662C67.4449 57.6572 67.688 57.4908 67.9565 57.3768C68.2249 57.2629 68.5133 57.2036 68.8048 57.2025C71.8356 57.1604 74.8674 57.1604 77.9002 57.2025C78.1918 57.2052 78.4799 57.266 78.7477 57.3814C79.0156 57.4968 79.2578 57.6645 79.4603 57.8747C79.6628 58.0849 79.8215 58.3334 79.9272 58.6057C80.0329 58.878 80.0834 59.1687 80.0758 59.4607C80.0664 60.0494 79.827 60.611 79.409 61.0248C78.991 61.4386 78.4278 61.6716 77.8402 61.6739C77.138 61.71 76.4298 61.6739 75.5836 61.6739V76.3331C75.5836 76.5977 75.5836 76.8593 75.5836 77.121C75.5506 78.6575 74.6534 79.6739 73.336 79.6769C72.0187 79.6799 71.1004 78.6756 71.0974 77.133C71.0974 72.446 71.0974 67.7581 71.0974 63.0692L71.0914 61.6739Z" fill="url(#paint5_linear_17_11263)"/>
</g>
<defs>
<linearGradient id="paint0_linear_17_11263" x1="134.755" y1="-25.2017" x2="22.769" y2="136.414" gradientUnits="userSpaceOnUse">
<stop stop-color="#FFFFBF"/>
<stop offset="0.5" stop-color="#FF8610"/>
<stop offset="1" stop-color="#761C00"/>
</linearGradient>
<linearGradient id="paint1_linear_17_11263" x1="105.738" y1="58.701" x2="100.442" y2="65.2433" gradientUnits="userSpaceOnUse">
<stop stop-color="#FFFFBF"/>
<stop offset="0.5" stop-color="#FF8610"/>
<stop offset="1" stop-color="#761C00"/>
</linearGradient>
<linearGradient id="paint2_linear_17_11263" x1="80.6488" y1="1.01856" x2="32.0213" y2="54.1314" gradientUnits="userSpaceOnUse">
<stop stop-color="#FFFFBF"/>
<stop offset="0.5" stop-color="#FF8610"/>
<stop offset="1" stop-color="#761C00"/>
</linearGradient>
<linearGradient id="paint3_linear_17_11263" x1="48.8092" y1="51.4594" x2="22.7837" y2="70.8175" gradientUnits="userSpaceOnUse">
<stop stop-color="#FFFFBF"/>
<stop offset="0.5" stop-color="#FF8610"/>
<stop offset="1" stop-color="#761C00"/>
</linearGradient>
<linearGradient id="paint4_linear_17_11263" x1="64.1167" y1="51.4295" x2="39.7723" y2="66.502" gradientUnits="userSpaceOnUse">
<stop stop-color="#FFFFBF"/>
<stop offset="0.5" stop-color="#FF8610"/>
<stop offset="1" stop-color="#761C00"/>
</linearGradient>
<linearGradient id="paint5_linear_17_11263" x1="82.5018" y1="51.443" x2="56.4697" y2="70.7849" gradientUnits="userSpaceOnUse">
<stop stop-color="#FFFFBF"/>
<stop offset="0.5" stop-color="#FF8610"/>
<stop offset="1" stop-color="#761C00"/>
</linearGradient>
<clipPath id="clip0_17_11263">
<rect width="115" height="99" fill="white" transform="translate(-1)"/>
</clipPath>
</defs>
</svg>
