<svg width="96" height="112" viewBox="0 0 96 112" fill="none" xmlns="http://www.w3.org/2000/svg">
<g id="Isolation_Mode" clip-path="url(#clip0_16_11254)">
<path id="Vector" d="M47.0967 112C30.3604 107.853 11.3549 90.2186 4.45051 70.9718C2.2225 64.7565 0.498476 58.4039 0.305693 51.8101C0.00825805 41.7848 0.0688508 31.7486 0 21.7179C0 20.2478 0.583851 19.562 2.16466 19.1149C9.56005 17.05 16.8252 14.5477 23.9215 11.6214C31.5217 8.46343 38.8935 4.78559 45.984 0.614218C47.3831 -0.208646 48.5508 -0.208646 49.9554 0.614218C63.5805 8.55337 78.1695 14.7237 93.3671 18.9751C95.5483 19.584 95.9614 20.1518 95.9587 22.379C95.9587 30.9176 96.0964 39.4589 95.8733 47.992C95.4134 65.5738 89.2168 80.9065 77.1459 93.8255C71.1945 100.219 64.3534 105.472 56.4411 109.26C54.0258 110.412 51.3902 111.1 48.8538 112.003L47.0967 112ZM4.68461 37.484C4.68461 40.0376 4.68461 42.594 4.68461 45.1476C4.72867 53.2665 5.89913 61.1989 8.72752 68.8488C12.053 77.8914 17.3873 86.0687 24.3319 92.7695C30.1401 98.4198 36.6561 103.069 44.1829 106.237C46.5128 107.219 48.7987 107.573 51.1754 106.465C52.1999 105.985 53.2685 105.595 54.2847 105.093C61.5942 101.5 68.1731 96.5906 73.6896 90.6136C84.5735 78.9563 90.4121 65.135 91.062 49.2619C91.4035 40.9208 91.2025 32.5551 91.2741 24.2002C91.2741 23.4816 91.04 23.1991 90.3515 23.0126C88.5889 22.5353 86.8456 21.9813 85.1188 21.419C72.5495 17.3628 60.4344 12.0242 48.9667 5.48832C48.2231 5.06592 47.6943 5.07689 46.9783 5.51026C45.4167 6.45655 43.8029 7.32056 42.189 8.17908C30.6472 14.3695 18.4717 19.3084 5.8716 22.9111C4.92972 23.1854 4.64329 23.5804 4.65982 24.5568C4.72316 28.8741 4.68735 33.1804 4.68735 37.484H4.68461Z" fill="url(#paint0_linear_16_11254)"/>
<path id="Vector_2" d="M40.4677 59.729C40.8175 59.2984 41.0461 58.961 41.3297 58.6785C48.7876 51.2434 56.2492 43.8121 63.7145 36.3843C66.5952 33.518 70.1286 32.953 73.4197 34.7935C77.4048 37.0234 78.4816 42.5065 75.6229 46.0612C75.3553 46.408 75.0694 46.7403 74.7664 47.0569C65.2099 56.5838 55.6507 66.1062 46.0887 75.624C43.7285 77.9691 40.9194 78.7563 37.744 77.6126C36.7171 77.2377 35.7793 76.655 34.9899 75.901C30.2805 71.3039 25.5684 66.7041 20.9967 61.9699C17.1741 58.0119 18.2427 51.9886 23.1008 49.6571C25.8245 48.3488 28.5455 48.6094 30.9691 50.4498C32.1533 51.3522 33.1723 52.4741 34.2409 53.5246C36.2651 55.5242 38.2727 57.5429 40.4677 59.729ZM72.5384 41.9003C72.4998 40.1201 71.6957 39.0367 70.5059 38.6308C69.0408 38.1343 67.9805 38.7981 66.989 39.7883C58.8885 47.8651 50.7825 55.9383 42.6709 64.0079C40.9084 65.7633 39.8288 65.7578 38.0442 63.9832C34.9597 60.9148 31.8779 57.8446 28.7989 54.7726C28.0388 54.0128 27.1878 53.5027 26.0724 53.6371C25.5187 53.68 24.9902 53.8852 24.5535 54.2269C24.1168 54.5686 23.7915 55.0315 23.6186 55.5571C23.1669 56.8243 23.5497 57.9105 24.4861 58.8485C28.9439 63.281 33.4 67.7172 37.8541 72.157C39.5864 73.8795 41.159 73.8795 42.8747 72.157C45.7554 69.3007 48.6316 66.439 51.5031 63.5718C58.0797 57.0199 64.6508 50.4617 71.2164 43.8971C71.8719 43.2278 72.2658 42.309 72.5384 41.8893V41.9003Z" fill="url(#paint1_linear_16_11254)"/>
<path id="Vector_3" d="M9.32516 32.9421C9.32516 31.5953 9.30313 30.2458 9.32516 28.8991C9.3527 27.3878 9.87596 26.6527 11.2309 26.1699C15.3602 24.7071 19.4912 23.2533 23.6241 21.8087C24.9625 21.3425 25.9926 21.6167 26.6535 22.5575C27.2759 23.4325 27.2842 24.6202 26.5351 25.3745C26.0895 25.8 25.5581 26.1262 24.9763 26.3317C21.7238 27.5304 18.463 28.7126 15.1802 29.8262C14.3705 30.1005 14.0098 30.4077 14.0566 31.3293C14.1475 33.1835 14.0924 35.0459 14.0759 36.9028C14.0784 37.3747 14.0191 37.845 13.8996 38.3017C13.7611 38.7768 13.4713 39.1942 13.0739 39.491C12.6766 39.7878 12.1931 39.948 11.6964 39.9474C10.6526 39.9474 9.58404 39.2315 9.49315 38.181C9.36371 36.4475 9.45735 34.6948 9.45735 32.9531L9.32516 32.9421Z" fill="url(#paint2_linear_16_11254)"/>
<path id="Vector_4" d="M74.9455 75.6047C76.8733 75.6348 77.8702 77.6207 76.7493 79.3295C75.7138 80.9149 74.5847 82.4481 73.4059 83.932C70.2113 87.9504 66.4878 91.4475 62.4559 94.6293C61.2304 95.5948 59.9002 95.5536 59.0134 94.5525C58.1266 93.5513 58.234 92.0839 59.3907 91.0635C60.7291 89.8759 62.1447 88.7787 63.4777 87.5828C66.9258 84.4754 69.978 80.9584 72.566 77.1105C73.3894 75.9009 73.932 75.5745 74.9455 75.6047Z" fill="url(#paint3_linear_16_11254)"/>
<path id="Vector_5" d="M54.998 94.5005C55.6072 94.5068 56.1908 94.7451 56.6291 95.1664C57.0675 95.5877 57.3274 96.1601 57.3555 96.7661C57.337 97.4094 57.0785 98.0227 56.6303 98.4862C56.1822 98.9498 55.5766 99.2304 54.9319 99.2731C54.6206 99.279 54.3113 99.2227 54.0223 99.1075C53.7332 98.9923 53.4703 98.8206 53.249 98.6025C53.0277 98.3843 52.8525 98.1243 52.7338 97.8376C52.6151 97.5509 52.5553 97.2435 52.5579 96.9334C52.563 96.2902 52.8216 95.6747 53.278 95.2196C53.7345 94.7645 54.3522 94.5062 54.998 94.5005Z" fill="url(#paint4_linear_16_11254)"/>
<path id="Vector_6" d="M31.44 23.4736C30.8318 23.4497 30.2552 23.1974 29.826 22.7675C29.3969 22.3376 29.147 21.7618 29.1266 21.1559C29.1417 20.5317 29.3955 19.9368 29.8363 19.4927C30.277 19.0487 30.8713 18.789 31.4979 18.7668C32.1245 18.7815 32.7213 19.0364 33.1641 19.4783C33.6068 19.9203 33.8613 20.5153 33.8746 21.1394C33.8405 21.7631 33.5704 22.3507 33.1186 22.7838C32.6669 23.2169 32.067 23.4634 31.44 23.4736Z" fill="url(#paint5_linear_16_11254)"/>
</g>
<defs>
<linearGradient id="paint0_linear_16_11254" x1="113.298" y1="-28.5088" x2="-21.7469" y2="115.293" gradientUnits="userSpaceOnUse">
<stop stop-color="#FFFFBF"/>
<stop offset="0.5" stop-color="#FF8610"/>
<stop offset="1" stop-color="#761C00"/>
</linearGradient>
<linearGradient id="paint1_linear_16_11254" x1="87.7825" y1="22.4316" x2="40.0759" y2="100.587" gradientUnits="userSpaceOnUse">
<stop stop-color="#FFFFBF"/>
<stop offset="0.5" stop-color="#FF8610"/>
<stop offset="1" stop-color="#761C00"/>
</linearGradient>
<linearGradient id="paint2_linear_16_11254" x1="30.3156" y1="16.9132" x2="8.51058" y2="43.1662" gradientUnits="userSpaceOnUse">
<stop stop-color="#FFFFBF"/>
<stop offset="0.5" stop-color="#FF8610"/>
<stop offset="1" stop-color="#761C00"/>
</linearGradient>
<linearGradient id="paint3_linear_16_11254" x1="80.6055" y1="70.5824" x2="57.1094" y2="98.3939" gradientUnits="userSpaceOnUse">
<stop stop-color="#FFFFBF"/>
<stop offset="0.5" stop-color="#FF8610"/>
<stop offset="1" stop-color="#761C00"/>
</linearGradient>
<linearGradient id="paint4_linear_16_11254" x1="58.2199" y1="93.2857" x2="52.5931" y2="100.312" gradientUnits="userSpaceOnUse">
<stop stop-color="#FFFFBF"/>
<stop offset="0.5" stop-color="#FF8610"/>
<stop offset="1" stop-color="#761C00"/>
</linearGradient>
<linearGradient id="paint5_linear_16_11254" x1="34.7301" y1="17.569" x2="29.1858" y2="24.5173" gradientUnits="userSpaceOnUse">
<stop stop-color="#FFFFBF"/>
<stop offset="0.5" stop-color="#FF8610"/>
<stop offset="1" stop-color="#761C00"/>
</linearGradient>
<clipPath id="clip0_16_11254">
<rect width="96" height="112" fill="white"/>
</clipPath>
</defs>
</svg>
