<svg width="113" height="113" viewBox="0 0 113 113" fill="none" xmlns="http://www.w3.org/2000/svg">
<g id="Icon" clip-path="url(#clip0_15_11250)">
<path id="Vector" d="M112.965 80.3099C113.106 77.7311 112.918 75.229 110.487 73.6563C109.532 73.0396 109.429 72.3816 109.638 71.3666C110.404 67.6252 107.67 63.813 103.896 63.155C102.467 62.9072 101.041 62.9839 99.6116 62.9426C98.4743 62.9101 98.3594 62.8127 98.3505 61.6532C98.3299 59.629 98.3505 57.6049 98.3358 55.5837C98.3279 54.7378 98.5218 53.9022 98.9015 53.1465C100.466 49.9008 101.972 46.6256 103.557 43.3918C103.9 42.6976 104.078 41.9329 104.075 41.1581C104.075 30.7837 104.075 20.4074 104.075 10.0291C104.074 9.21277 103.893 8.40683 103.545 7.66857C101.951 4.18683 98.6157 2.6525 94.7766 3.72653C94.4396 3.85032 94.074 3.873 93.7244 3.79176C93.3748 3.71052 93.0564 3.52891 92.8084 3.26919C90.6605 1.35423 88.1708 0.784763 85.4424 1.79388C84.6086 2.08894 83.9692 2.02698 83.3416 1.4457C82.4044 0.600794 81.2041 0.106639 79.9444 0.0471036C77.2338 -0.168292 74.7735 0.286105 73.1294 2.68496C72.4842 3.62326 71.7977 3.70293 70.7988 3.50229C66.777 2.69382 62.711 5.98081 62.5931 10.0822C62.5696 10.8906 62.5931 11.7021 62.5931 12.5105C62.5931 14.1157 62.5666 14.1422 61.0168 14.1452C58.9956 14.1452 56.9744 14.1304 54.9531 14.1452C54.1444 14.1531 53.3458 13.9648 52.6255 13.5964C49.3845 11.9735 46.0609 10.4717 42.7875 8.87537C42.1982 8.57085 41.5471 8.40534 40.8841 8.39147C30.5718 8.39147 20.2358 8.36197 9.91166 8.40918C8.93096 8.41186 7.96404 8.64053 7.08575 9.07749C6.20747 9.51445 5.44138 10.148 4.84681 10.929C3.19684 12.9767 2.60756 15.2782 3.49737 17.8512C3.68888 18.4 3.88629 18.9163 3.33532 19.4652C1.00177 21.7873 0.518566 24.5196 1.66766 27.5735C1.81498 27.9688 1.9623 28.376 1.60873 28.7095C0.54803 29.7451 0.209194 31.07 0 32.4715V35.1271C0.203301 36.9122 0.801419 38.5144 2.4131 39.4704C3.35889 40.031 3.44139 40.7067 3.24987 41.6686C2.48676 45.5044 5.16502 49.2723 9.0248 49.9539C10.4538 50.2047 11.8769 50.1546 13.3059 50.1457C14.1898 50.1457 14.5552 50.4762 14.5404 51.382C14.511 53.3678 14.5051 55.3565 14.5404 57.3423C14.5571 58.2976 14.3406 59.2426 13.9099 60.0952C12.3483 63.3026 10.8781 66.5512 9.29881 69.7497C8.95987 70.4458 8.78833 71.2118 8.79792 71.9862V103.021C8.79667 103.87 8.98386 104.708 9.34595 105.476C10.937 108.907 14.2399 110.442 18.0349 109.397C18.3871 109.267 18.7694 109.243 19.1355 109.326C19.5015 109.409 19.8356 109.597 20.0973 109.866C22.2895 111.802 24.8116 112.342 27.5694 111.247C28.303 110.952 28.8157 111.047 29.3608 111.542C30.3666 112.421 31.6451 112.923 32.979 112.964C35.6513 113.142 38.1705 112.852 39.8028 110.371C40.3921 109.486 41.0344 109.43 41.9478 109.604C42.9613 109.796 44.0047 109.763 45.0038 109.505C46.003 109.248 46.9332 108.774 47.7284 108.116C48.5237 107.458 49.1643 106.632 49.6048 105.698C50.0454 104.764 50.2749 103.744 50.2772 102.711C50.2772 101.903 50.2772 101.094 50.2772 100.283C50.2978 99.0788 50.3862 98.9844 51.6267 98.9756C53.7952 98.9756 55.9638 98.9756 58.1294 98.9756C58.7912 98.9776 59.444 99.1299 60.0386 99.4211C63.2973 100.95 66.5207 102.549 69.7764 104.086C70.6338 104.508 71.5762 104.727 72.5313 104.726C77.0864 104.709 81.6416 104.726 86.1996 104.726C91.7094 104.726 97.2221 104.744 102.732 104.726C107.151 104.706 110.292 100.575 109.671 96.8895C109.346 94.9775 109.45 93.6438 110.705 92.0652C112.178 90.2388 112.075 87.9343 111.265 85.745C111.064 85.205 110.899 84.7093 111.394 84.2254C112.487 83.1366 112.888 81.7852 112.965 80.3099ZM66.4323 39.2196C66.6767 39.5137 66.8993 39.8253 67.0982 40.152C67.5696 39.5914 67.3928 39.1753 67.4105 38.8006C67.4105 29.6733 67.4105 20.548 67.4105 11.4247C67.3977 11.0202 67.4085 10.6153 67.4429 10.212C67.5162 9.64111 67.801 9.11864 68.2409 8.74812C68.6807 8.37759 69.2435 8.18606 69.8177 8.21148C71.0699 8.26754 72.0186 9.2442 72.0452 10.628C72.0864 12.6895 72.0864 14.7501 72.0452 16.8096C72.0304 17.5 72.1777 17.8128 72.9291 17.7361C74.0841 17.6181 75.6398 18.2229 76.2939 17.4912C76.8831 16.8539 76.4706 15.3254 76.4765 14.1924C76.4765 11.9116 76.4765 9.63073 76.4765 7.34989C76.4765 5.76246 77.4253 4.69433 78.7865 4.69433C80.1477 4.69433 81.1083 5.76541 81.1142 7.34989C81.1142 10.513 81.1377 13.679 81.1142 16.8421C81.1142 17.562 81.2998 17.801 82.0246 17.7538C83.156 17.6771 84.638 18.1226 85.3275 17.559C86.017 16.9955 85.5279 15.4257 85.5485 14.3134C85.5868 12.5105 85.5485 10.7048 85.5632 8.90192C85.5632 7.30269 86.5178 6.24636 87.8909 6.24636C89.2639 6.24636 90.1979 7.25843 90.2067 8.90192C90.2215 11.5575 90.2332 14.213 90.2067 16.8509C90.2067 17.5591 90.3717 17.8512 91.1201 17.7774C92.2751 17.6594 93.7925 18.2554 94.4967 17.5266C95.0565 16.9365 94.6558 15.4317 94.6646 14.3311C94.6735 13.2305 94.6646 12.124 94.6646 11.0205C94.6911 9.29731 95.575 8.25574 96.9893 8.25279C98.4036 8.24984 99.3229 9.2796 99.3258 11.0057C99.3376 18.3646 99.3376 25.7234 99.3258 33.0823C99.3258 35.6936 99.7324 38.3934 99.1726 40.8896C98.6128 43.3859 97.2162 45.7109 95.9316 47.9711C93.9634 51.4292 93.0294 55.0349 93.4536 59.0123C93.5862 60.2487 93.4537 61.5115 93.4802 62.7626C93.4802 63.1668 93.4802 63.456 92.9203 63.4501C90.1655 63.4265 87.4076 63.4501 84.6528 63.4501C84.4848 63.4501 84.3169 63.4353 83.981 63.4176C84.4112 62.9603 84.7323 62.6328 85.0446 62.2905C86.2761 60.9505 86.953 59.1919 86.9382 57.3708C86.9234 55.5498 86.2181 53.8024 84.9651 52.4826C83.7227 51.1791 82.0343 50.394 80.2383 50.2846C78.4423 50.1751 76.6713 50.7495 75.2803 51.8925C74.1371 52.819 73.0086 53.7632 71.9067 54.734C71.5119 55.0821 71.3174 55.0792 70.952 54.6572C65.5837 48.1659 60.2046 41.6902 54.8147 35.2303C54.3523 34.6959 54.1144 34.003 54.1506 33.2968C54.1868 32.5907 54.4945 31.9259 55.0091 31.4417C55.2697 31.194 55.5766 31.0002 55.9122 30.8715C56.2478 30.7429 56.6054 30.6818 56.9646 30.692C57.3238 30.7021 57.6775 30.7832 58.0053 30.9306C58.3331 31.078 58.6286 31.2888 58.8748 31.5509C61.4205 34.0383 63.922 36.6319 66.4323 39.2196ZM67.0216 58.735C63.4682 61.6856 59.909 64.6362 56.3821 67.6341C55.7929 68.1239 55.5218 68.0294 55.0769 67.4865C51.9979 63.7481 48.8895 60.0303 45.7869 56.3096C45.1505 55.5483 45.1976 54.9228 46.002 54.2648C49.5141 51.3732 53.0056 48.456 56.4764 45.5133C57.107 44.9792 57.3987 45.1149 57.8612 45.6785C60.9166 49.3904 64.0015 53.0786 67.0775 56.7728C67.3368 57.0856 67.6167 57.3866 67.5401 57.841C67.6079 58.2835 67.2985 58.5107 67.0127 58.735H67.0216ZM11.2493 45.2329C10.8829 45.2467 10.516 45.2398 10.1503 45.2123C8.79498 45.0618 7.88454 44.032 7.94347 42.781C7.96272 42.1843 8.2172 41.6196 8.65122 41.2104C9.08524 40.8012 9.66346 40.5808 10.2593 40.5975C12.3218 40.5533 14.3843 40.5356 16.4291 40.5975C17.2835 40.6241 17.5192 40.3497 17.4515 39.5382C17.3822 38.6948 17.3822 37.8471 17.4515 37.0037C17.5163 36.2306 17.1951 36.089 16.5086 36.0949C13.5357 36.1244 10.5599 36.1096 7.58401 36.0949C7.14373 36.1059 6.70328 36.0812 6.26697 36.0211C5.77848 35.9429 5.33003 35.7036 4.99271 35.3412C4.6554 34.9788 4.44851 34.5141 4.40486 34.0206C4.35196 33.5042 4.47558 32.9852 4.7555 32.5484C5.03542 32.1116 5.45507 31.7828 5.94582 31.6158C6.44183 31.4759 6.95753 31.4191 7.47205 31.4476C10.4479 31.4476 13.4238 31.424 16.3996 31.4683C17.1775 31.4683 17.5546 31.3414 17.4485 30.4621C17.3159 29.3438 17.9229 27.839 17.1951 27.1987C16.5646 26.644 15.1032 27.0187 14.0071 27.0099C12.1715 27.0099 10.333 27.0099 8.49739 27.0099C6.92697 26.9951 5.95466 26.1247 5.93109 24.7497C5.90752 23.3747 6.92402 22.3892 8.51213 22.3715C11.1639 22.3538 13.8156 22.3243 16.4438 22.3892C17.3012 22.4069 17.5251 22.1384 17.4515 21.3359C17.3808 20.6029 17.3808 19.8647 17.4515 19.1317C17.5428 18.2141 17.3218 17.8482 16.2729 17.9043C14.4049 18.0046 12.5281 17.9397 10.6542 17.9308C8.9865 17.9308 7.90812 16.9748 7.92874 15.5703C7.94937 14.1658 8.99239 13.2866 10.607 13.2836C20.3772 13.2836 30.1485 13.2836 39.9207 13.2836C40.435 13.2941 40.9396 13.4255 41.3939 13.6672C44.9295 15.3667 48.4652 17.0486 52.0009 18.7481C52.5261 19.0089 53.1059 19.1404 53.6921 19.1317C56.4823 19.114 59.2755 19.1317 62.0657 19.117C62.6373 19.117 63.0322 19.1317 63.0204 19.9107C62.9821 22.9616 63.0204 26.0096 63.0204 29.1993C62.3781 28.9367 62.1129 28.4764 61.7446 28.14C60.4063 26.906 58.6493 26.2284 56.8302 26.2448C55.0111 26.2613 53.2665 26.9705 51.9508 28.2285C50.6335 29.4861 49.8461 31.2004 49.7497 33.0204C49.6533 34.8405 50.2552 36.6285 51.4322 38.0187C52.2307 38.9776 53.0115 39.9572 53.8483 40.8837C54.2784 41.3647 54.3315 41.642 53.7746 42.1023C47.4605 47.2984 41.1817 52.5682 34.8794 57.8055C33.6154 58.856 32.0597 58.7261 31.0314 57.5783C30.0031 56.4306 30.0827 54.8461 31.2288 53.7042C33.7539 51.1902 36.3172 48.7117 38.8717 46.2214C39.1919 45.9563 39.4428 45.617 39.6024 45.2329H38.4681C29.3873 45.2329 20.3144 45.2329 11.2493 45.2329ZM46.4086 73.8805C46.1641 73.6297 45.9843 73.2904 45.4392 73.1488V98.415C45.4392 99.7398 45.4717 101.071 45.4392 102.386C45.4157 103.909 44.461 104.924 43.1145 104.909C41.768 104.895 40.8223 103.862 40.8046 102.345C40.7781 100.321 40.7604 98.2969 40.8046 96.2728C40.8252 95.5204 40.5718 95.3375 39.8735 95.3876C38.9906 95.4485 38.1046 95.4485 37.2218 95.3876C36.4586 95.3257 36.3378 95.6355 36.3378 96.32C36.3703 99.4477 36.3555 102.575 36.3378 105.703C36.3378 107.42 35.4539 108.462 34.0308 108.468C32.6077 108.474 31.7444 107.423 31.7415 105.721C31.7415 102.593 31.712 99.4654 31.7592 96.3377C31.7592 95.5529 31.55 95.3168 30.7839 95.3758C29.9012 95.4426 29.0148 95.4426 28.1321 95.3758C27.425 95.3227 27.2777 95.5824 27.2865 96.2433C27.3248 98.9284 27.3219 101.616 27.2865 104.301C27.2659 106.193 25.7367 107.358 24.1486 106.733C23.1203 106.311 22.6548 105.523 22.6578 104.411C22.6578 101.726 22.6312 99.0375 22.6784 96.3525C22.6931 95.5735 22.4633 95.3257 21.6943 95.3788C20.782 95.4378 19.867 95.4427 18.9541 95.3935C18.3649 95.364 18.2087 95.5824 18.2146 96.1489C18.2441 98.2438 18.2735 100.345 18.2146 102.44C18.1527 104.458 16.2906 105.544 14.6789 104.567C13.8304 104.051 13.5563 103.248 13.5534 102.316C13.5534 100.474 13.5534 98.6343 13.5534 96.7951C13.5534 88.9582 13.5534 81.1204 13.5534 73.2816C13.5447 72.5854 13.7002 71.8969 14.0071 71.2722C15.6984 67.7698 17.3513 64.2468 19.0396 60.7444C19.3006 60.2218 19.432 59.6438 19.4226 59.0596C19.4049 56.2624 19.4491 53.4534 19.3961 50.668C19.3961 49.8713 19.623 49.7031 20.3772 49.7149C23.1586 49.7621 25.943 49.7326 28.9365 49.7326L27.8552 50.8391C26.6135 52.1699 25.9227 53.9232 25.9227 55.7445C25.9227 57.5659 26.6135 59.3192 27.8552 60.6499C29.0859 61.9663 30.7682 62.7679 32.5645 62.8938C34.3608 63.0197 36.1382 62.4605 37.54 61.3286C38.6891 60.4109 39.8116 59.4608 40.9165 58.4901C41.3202 58.1331 41.5471 58.0534 41.9478 58.5373C47.3161 65.0287 52.6952 71.5053 58.0852 77.9671C58.5415 78.507 58.7712 79.2029 58.7261 79.9087C58.6811 80.6146 58.3648 81.2755 57.8436 81.7528C57.3097 82.2447 56.6026 82.5042 55.8778 82.4743C55.153 82.4444 54.4696 82.1276 53.9779 81.5935C51.4322 79.05 48.9337 76.4535 46.4086 73.8805ZM107.752 80.9886C107.163 81.5787 106.406 81.679 105.616 81.679C102.567 81.679 99.5173 81.7026 96.4825 81.6584C95.69 81.6584 95.3364 81.8059 95.4395 82.6734C95.5721 83.7887 94.9622 85.2965 95.6958 85.9338C96.3352 86.4885 97.7937 86.1109 98.8868 86.1168C100.725 86.1168 102.561 86.1168 104.397 86.1168C105.964 86.1168 106.939 87.002 106.957 88.3828C106.975 89.7637 105.961 90.7433 104.37 90.7433C101.762 90.7581 99.152 90.7965 96.5473 90.7227C95.5839 90.6932 95.3511 91.0177 95.4366 91.9029C95.5058 92.6725 95.5058 93.4467 95.4366 94.2162C95.3747 94.9686 95.5839 95.2342 96.3853 95.2076C98.3299 95.1486 100.277 95.1811 102.225 95.2076C103.89 95.2076 104.971 96.1695 104.945 97.5681C104.918 98.9667 103.881 99.846 102.26 99.846C92.4902 99.846 82.719 99.846 72.9468 99.846C72.4327 99.8341 71.9283 99.7028 71.4736 99.4624C68.0381 97.8071 64.5908 96.1813 61.1612 94.5113C60.4399 94.155 59.6435 93.9779 58.8394 93.9949C56.1582 94.0244 53.477 93.9949 50.7958 94.0126C50.2065 94.0126 49.8353 93.9861 49.847 93.213C49.8853 90.165 49.847 87.117 49.847 83.9953C50.3509 84.0454 50.5453 84.432 50.8105 84.6887C53.6862 87.4918 58.0144 87.6127 60.843 84.9572C63.6715 82.3016 63.8778 77.9996 61.2732 74.9251C60.4894 73.9986 59.7381 73.0455 58.9337 72.1397C58.5419 71.703 58.5919 71.4522 59.0339 71.0863C65.3627 65.8263 71.6867 60.5575 78.0057 55.2798C78.2707 55.0373 78.5822 54.8512 78.9211 54.7328C79.2601 54.6144 79.6195 54.5661 79.9777 54.5909C80.3358 54.6158 80.6852 54.7132 81.0046 54.8772C81.3241 55.0413 81.6069 55.2686 81.836 55.5454C82.8142 56.6578 82.7582 58.2658 81.6033 59.4166C79.1047 61.9069 76.5679 64.3618 74.0369 66.8197C73.7362 67.0767 73.4172 67.3114 73.0823 67.5219L73.3151 67.8613H83.8897C89.8414 67.8613 95.7921 67.8613 101.742 67.8613C102.181 67.8452 102.621 67.8768 103.053 67.9557C103.597 68.0678 104.083 68.3733 104.42 68.8159C104.756 69.2584 104.922 69.8081 104.886 70.3634C104.856 70.9218 104.618 71.4488 104.219 71.8404C103.821 72.232 103.29 72.4599 102.732 72.479C100.64 72.538 98.547 72.538 96.4531 72.479C95.6605 72.4613 95.304 72.6354 95.4012 73.5029C95.5279 74.6211 94.9357 76.0817 95.6458 76.781C96.3057 77.4272 97.7465 76.9462 98.8397 76.961C101.265 76.9875 103.689 76.961 106.114 76.9875C106.597 76.9666 107.073 77.1063 107.468 77.385C107.863 77.6637 108.155 78.0655 108.298 78.5278C108.471 78.9443 108.511 79.4041 108.413 79.8445C108.316 80.2849 108.085 80.6844 107.752 80.9886Z" fill="url(#paint0_linear_15_11250)"/>
</g>
<defs>
<linearGradient id="paint0_linear_15_11250" x1="133.36" y1="-28.7614" x2="-0.0111548" y2="136.923" gradientUnits="userSpaceOnUse">
<stop stop-color="#FFFFBF"/>
<stop offset="0.5" stop-color="#FF8610"/>
<stop offset="1" stop-color="#761C00"/>
</linearGradient>
<clipPath id="clip0_15_11250">
<rect width="113" height="113" fill="white"/>
</clipPath>
</defs>
</svg>
