<svg width="96" height="98" viewBox="0 0 96 98" fill="none" xmlns="http://www.w3.org/2000/svg">
<g id="Isolation_Mode" clip-path="url(#clip0_20_11255)">
<path id="Vector" d="M97 64.9211C97.0384 64.4437 96.9302 63.9659 96.6899 63.5517C96.4495 63.1375 96.0886 62.8067 95.6553 62.6036C92.4754 60.8323 89.3369 58.9894 86.1626 57.2126C85.9193 57.104 85.7167 56.9212 85.5835 56.6902C85.4504 56.4593 85.3936 56.1921 85.4213 55.9269C85.4507 51.6248 85.4507 47.3245 85.4213 43.026C85.395 42.7607 85.4534 42.4938 85.5881 42.2638C85.7227 42.0338 85.9268 41.8524 86.1708 41.7458C89.3755 39.9497 92.5471 38.0957 95.749 36.2996C96.1514 36.1074 96.4861 35.7974 96.709 35.4108C96.9318 35.0241 97.0323 34.5789 96.9972 34.1338C96.9642 30.0395 96.9642 25.9452 96.9972 21.8509C96.9972 20.9377 96.7217 20.2728 95.895 19.8093C92.221 17.7253 88.5562 15.6294 84.9005 13.5216C84.5706 13.305 84.1846 13.1896 83.7901 13.1896C83.3955 13.1896 83.0096 13.305 82.6796 13.5216C79.0258 15.635 75.361 17.7309 71.6851 19.8093C71.3292 19.9834 71.0338 20.2607 70.8372 20.6051C70.6407 20.9495 70.5521 21.3451 70.5829 21.7405C70.6132 22.8883 70.5829 24.0388 70.5829 25.3272C67.4609 23.7656 64.5015 22.251 61.509 20.8135C60.8284 20.488 60.6658 20.0879 60.6823 19.3927C60.7126 15.806 60.6824 12.2387 60.7099 8.66029C60.7424 8.21537 60.6394 7.77106 60.4146 7.38591C60.1898 7.00076 59.8537 6.69286 59.4506 6.50278C55.863 4.47954 52.2891 2.43146 48.729 0.358557C47.8555 -0.149093 47.1004 -0.110467 46.2324 0.397183C42.7054 2.45721 39.1609 4.48689 35.5989 6.48622C34.6758 7.00215 34.279 7.65878 34.2901 8.71547C34.3287 12.189 34.2735 15.6653 34.3231 19.1388C34.3231 20.0355 34.1247 20.5376 33.254 20.9432C30.6115 22.1765 28.0185 23.5339 25.4146 24.8333C25.1197 24.9796 24.8469 25.2224 24.4061 25.1755C24.4061 24.0719 24.3702 22.9848 24.4061 21.8923C24.4529 20.8798 24.0534 20.2204 23.1688 19.7237C19.5812 17.7005 16.0073 15.6524 12.4471 13.5795C12.0754 13.3348 11.6395 13.206 11.1946 13.2095C10.7497 13.2129 10.3158 13.3484 9.94786 13.5988C6.39326 15.6754 2.81938 17.7217 -0.773805 19.7375C-1.66384 20.2369 -2.01654 20.8991 -2.00827 21.9061C-1.97888 25.9673 -1.97888 30.0266 -2.00827 34.0842C-2.0444 34.5449 -1.93926 35.0058 -1.70685 35.4051C-1.47445 35.8044 -1.12586 36.1232 -0.707675 36.3189C2.50249 38.1067 5.66582 39.9718 8.86773 41.7706C9.09632 41.8722 9.28703 42.0435 9.41271 42.26C9.53838 42.4765 9.59259 42.7272 9.5676 42.9763C9.54372 47.3116 9.54372 51.6459 9.5676 55.9793C9.59259 56.2285 9.53838 56.4792 9.41271 56.6957C9.28703 56.9122 9.09632 57.0834 8.86773 57.185C5.63551 59.0004 2.43359 60.8682 -0.795871 62.6864C-1.18231 62.872 -1.50417 63.1696 -1.71983 63.5405C-1.9355 63.9113 -2.03505 64.3385 -2.00554 64.7666C-1.97799 68.8609 -1.97799 72.9552 -2.00554 77.0496C-2.00554 78.109 -1.60047 78.7574 -0.685644 79.2705C2.84876 81.2478 6.36296 83.2627 9.85695 85.3154C10.7993 85.8672 11.5984 85.8672 12.5381 85.3154C15.6463 83.4917 18.7958 81.7288 21.9068 79.9189C22.4854 79.5823 22.8988 79.5657 23.4829 79.9409C26.0511 81.5963 28.6606 83.191 31.2507 84.8133C32.24 85.4313 33.5406 85.8589 34.1137 86.7446C34.7144 87.6826 34.2405 89.0814 34.2956 90.2788C34.2956 90.3478 34.2956 90.4167 34.2956 90.483C34.2487 91.33 34.629 91.9121 35.3592 92.3287C39.0718 94.4439 42.7651 96.5656 46.4391 98.6936C46.7408 98.8932 47.0935 99.0016 47.455 99.006C47.8166 99.0104 48.1717 98.9106 48.4782 98.7185C52.2 96.583 55.9254 94.4531 59.6545 92.3287C59.9916 92.154 60.2697 91.8836 60.454 91.5513C60.6383 91.2191 60.7206 90.8398 60.6906 90.4609C60.6631 89.498 60.7127 88.5296 60.6741 87.5723C60.6397 87.3232 60.6836 87.0696 60.7996 86.8467C60.9156 86.6237 61.0981 86.4424 61.3216 86.328C64.744 84.2238 68.1498 82.0929 71.5391 79.9354C71.7502 79.7699 72.009 79.6769 72.2771 79.6705C72.5452 79.664 72.8082 79.7444 73.027 79.8996C76.1435 81.7122 79.2986 83.4531 82.3958 85.2933C83.3795 85.8755 84.1896 85.8672 85.1513 85.2933C88.6159 83.2591 92.1062 81.2634 95.6222 79.3064C96.5674 78.7767 97 78.1062 97 76.9999C96.9596 72.9736 96.9596 68.9474 97 64.9211ZM78.1661 19.9224C79.8194 18.9678 81.503 18.0215 83.1646 17.0558C83.5421 16.8379 83.8645 16.7275 84.2998 16.9813C86.7578 18.416 89.2322 19.8231 91.6984 21.2412C91.7452 21.2688 91.7618 21.3515 91.8389 21.5005C89.9762 22.5682 88.0143 23.4953 86.2783 24.7423C84.4872 26.0307 83.024 25.9894 81.2522 24.712C79.5411 23.4787 77.6039 22.5627 75.6007 21.4012C76.5403 20.866 77.3504 20.3914 78.1661 19.9224ZM46.9902 3.78519C47.1437 3.68021 47.3252 3.62405 47.511 3.62405C47.6968 3.62405 47.8784 3.68021 48.0318 3.78519C50.5118 5.22537 53.0275 6.64624 55.5185 8.06987C55.4551 8.50303 55.0969 8.54717 54.8517 8.68788C52.6473 9.95884 50.4429 11.2215 48.2385 12.4759C47.8885 12.6746 47.5634 12.945 47.1032 12.6773C44.5599 11.2068 42.0083 9.75008 39.2831 8.18574C41.9917 6.64348 44.5103 5.22537 46.9902 3.78519ZM50.9637 45.5891C49.8008 46.2374 48.6876 47.4486 47.4559 47.3658C46.282 47.2913 45.1688 46.2319 44.0363 45.5891C42.518 44.7283 41.0052 43.8564 39.2968 42.877L47.1225 38.3854C47.2385 38.3112 47.3733 38.2718 47.511 38.2718C47.6487 38.2718 47.7835 38.3112 47.8995 38.3854C50.4484 39.8476 52.9972 41.3044 55.7252 42.866C54.0305 43.8399 52.5012 44.731 50.9609 45.5863L50.9637 45.5891ZM3.17759 21.5116C3.33465 21.0536 3.7287 20.9791 4.04558 20.8025C6.18386 19.5637 8.33039 18.3443 10.4769 17.122C10.8241 16.9234 11.152 16.653 11.6094 16.9206C14.1528 18.3912 16.7071 19.8479 19.4296 21.4095C16.7237 22.9545 14.2189 24.3781 11.7142 25.8238C11.5607 25.9288 11.3792 25.985 11.1934 25.985C11.0075 25.985 10.826 25.9288 10.6726 25.8238C8.19812 24.3643 5.69337 22.9462 3.17759 21.5116ZM11.5902 68.8361C11.4741 68.9103 11.3393 68.9497 11.2016 68.9497C11.064 68.9497 10.9291 68.9103 10.8131 68.8361C8.26701 67.3711 5.71817 65.9116 3.00123 64.3528C4.93009 63.2492 6.8121 62.3967 8.43785 61.1855C10.3998 59.7232 12.0448 59.737 13.9985 61.1855C15.6105 62.3829 17.4759 63.2326 19.4268 64.35L11.5902 68.8361ZM34.2735 78.636C34.3948 79.9575 34.2983 81.2984 34.2983 82.8351C31.0248 80.7852 27.9607 78.8429 24.858 76.9392C24.3647 76.6357 24.4005 76.2439 24.4005 75.8025C24.4005 72.1551 24.3785 68.5106 24.4171 64.866C24.4523 64.4046 24.3462 63.9435 24.1128 63.5442C23.8794 63.1449 23.5299 62.8264 23.1109 62.6312C19.9063 60.8406 16.7402 58.9811 13.5383 57.185C13.31 57.0833 13.1196 56.912 12.9944 56.6954C12.8692 56.4789 12.8155 56.2282 12.8412 55.9793C12.8669 51.6477 12.8669 47.3143 12.8412 42.9791C12.8166 42.7307 12.8707 42.4808 12.9958 42.2649C13.1209 42.049 13.3107 41.878 13.5383 41.7762C16.7402 39.9773 19.909 38.1205 23.1137 36.33C24.0313 35.8168 24.4529 35.1519 24.4143 34.0924C24.3619 32.6854 24.4143 31.2728 24.3895 29.8629C24.3895 29.2808 24.5273 28.9442 25.0867 28.6683C28.5072 26.9964 31.912 25.295 35.3013 23.5642C35.4875 23.4528 35.7024 23.3989 35.919 23.4092C36.1357 23.4195 36.3445 23.4936 36.5193 23.6222C39.3997 25.2941 42.2893 26.9495 45.1881 28.5883C45.6676 28.8642 45.8742 29.1401 45.8577 29.7084C45.8191 31.3224 45.8136 32.942 45.8577 34.556C45.877 35.1712 45.6262 35.4581 45.1275 35.7423C41.9311 37.5467 38.765 39.4062 35.5576 41.194C34.6262 41.7127 34.2735 42.3942 34.2818 43.4398C34.3149 47.4992 34.3149 51.5576 34.2818 55.6151C34.2484 56.0588 34.3498 56.5023 34.5725 56.8873C34.7953 57.2723 35.129 57.5809 35.5301 57.7727C38.7623 59.5853 41.9614 61.4586 45.1909 63.2768C45.4059 63.3688 45.5862 63.5269 45.7056 63.7283C45.8249 63.9297 45.8773 64.1638 45.8549 64.3969C45.8164 65.942 45.8053 67.4925 45.8549 69.0375C45.8953 69.3371 45.8362 69.6416 45.6869 69.9043C45.5375 70.167 45.3061 70.3733 45.0283 70.4915C42.0303 72.1469 39.0874 73.9292 36.0646 75.5514C34.7668 76.2439 34.1358 77.1047 34.279 78.636H34.2735ZM47.8169 82.0957C47.7148 82.1572 47.597 82.1873 47.4779 82.1824C47.3589 82.1775 47.2439 82.1378 47.1473 82.0681C44.5938 80.5967 42.0376 79.1252 39.4787 77.6538C39.6192 77.2178 39.994 77.1461 40.2695 76.9861C42.4078 75.7473 44.5681 74.5472 46.6954 73.2918C46.9262 73.1229 47.2037 73.03 47.4896 73.026C47.7755 73.0221 48.0555 73.1073 48.2908 73.2698C50.6826 74.6851 53.1047 76.0453 55.7307 77.5489C52.9669 79.1353 50.3878 80.6141 47.8169 82.0957ZM71.8284 62.6698C71.4279 62.8626 71.095 63.172 70.8733 63.5575C70.6515 63.943 70.5512 64.3866 70.5857 64.8301C70.6187 68.4167 70.5691 71.9841 70.6187 75.5597C70.6187 76.3874 70.3432 76.8371 69.6571 77.2565C66.9842 78.8732 64.3554 80.5672 61.7019 82.2088C61.4263 82.3826 61.1811 82.6558 60.7016 82.6696C60.7016 81.1521 60.6465 79.7064 60.7182 78.2552C60.776 77.0827 60.3462 76.324 59.3129 75.7722C56.1881 74.045 53.1185 72.2241 49.9965 70.4915C49.3324 70.1218 49.1009 69.7135 49.134 68.963C49.2001 67.487 49.2001 66.0054 49.134 64.5294C49.1037 63.8313 49.3737 63.5003 49.9607 63.1802C53.1019 61.4172 56.2102 59.5936 59.3597 57.8416C60.3572 57.2898 60.7375 56.567 60.7375 55.4358C60.6934 51.4105 60.7016 47.3879 60.7375 43.3626C60.7741 42.9183 60.6755 42.4733 60.4546 42.0862C60.2338 41.6992 59.9011 41.3881 59.5002 41.194C56.2983 39.3979 53.1267 37.5467 49.9248 35.7506C49.3737 35.4443 49.1423 35.1243 49.1616 34.4759C49.2139 32.8978 49.2001 31.3142 49.1616 29.7305C49.134 29.4984 49.1808 29.2635 49.2952 29.0597C49.4096 28.8559 49.5857 28.6937 49.7981 28.5966C52.706 26.9743 55.5957 25.3189 58.4669 23.6304C58.6562 23.4941 58.8811 23.416 59.1141 23.4057C59.3471 23.3954 59.578 23.4534 59.7785 23.5725C63.1403 25.2849 66.5158 26.9734 69.9051 28.638C70.1429 28.7218 70.3449 28.8847 70.4773 29.0996C70.6097 29.3145 70.6645 29.5684 70.6325 29.8188C70.5857 31.1983 70.6766 32.5778 70.5994 33.9573C70.5333 35.1519 71.032 35.8527 72.0543 36.4183C75.1763 38.1454 78.2515 39.958 81.3625 41.7072C81.9301 42.0245 82.1891 42.35 82.1891 43.0508C82.1478 47.3493 82.1561 51.6477 82.1891 55.9462C82.2151 56.2115 82.1559 56.4781 82.0201 56.7073C81.8843 56.9366 81.679 57.1165 81.4341 57.2209C78.1964 59.0169 75.0275 60.8765 71.8229 62.6698H71.8284ZM83.8314 68.8444C82.6961 68.9327 81.6711 67.796 80.5937 67.2083C79.0313 66.3503 77.4965 65.4398 75.9534 64.5487C75.8557 64.4717 75.7636 64.3878 75.6778 64.2976L83.4208 59.8529C83.5371 59.7794 83.6718 59.7403 83.8094 59.7403C83.9469 59.7403 84.0816 59.7794 84.1979 59.8529C86.7467 61.3152 89.2956 62.7747 92.018 64.3307C90.2683 65.335 88.6811 66.262 87.0829 67.1587C86 67.7767 84.9446 68.7561 83.8259 68.8444H83.8314Z" fill="url(#paint0_linear_20_11255)"/>
<path id="Vector_2" d="M9.56215 38.3716C7.13179 36.9784 4.91085 35.6127 2.60449 34.4263C1.56291 33.8883 1.24877 33.2455 1.28735 32.1143C1.37552 29.5733 1.31489 27.0295 1.31489 24.4058C2.35097 24.6623 3.12251 25.3024 3.97121 25.7659C5.65758 26.6874 7.30264 27.6972 8.97799 28.627C9.16487 28.704 9.32286 28.8378 9.42966 29.0096C9.53646 29.1814 9.58663 29.3824 9.57315 29.5843C9.55111 32.4371 9.56215 35.2899 9.56215 38.3716Z" fill="#442505"/>
<path id="Vector_3" d="M82.1396 38.366C79.745 36.9865 77.5516 35.6622 75.2783 34.4841C74.1761 33.9185 73.8014 33.2536 73.8565 32.0176C73.9722 29.5152 73.8923 27.0018 73.8923 24.4028C74.9256 24.6622 75.6944 25.2995 76.5431 25.763C78.2267 26.6845 79.8718 27.6943 81.5471 28.6213C81.7346 28.6975 81.8935 28.8305 82.0018 29.0017C82.11 29.1729 82.162 29.3736 82.1506 29.5759C82.1258 32.4287 82.1396 35.2814 82.1396 38.366Z" fill="#442505"/>
<path id="Vector_4" d="M45.8495 59.8363C43.4577 58.4568 41.2643 57.1325 38.9882 55.9545C37.886 55.4027 37.5113 54.724 37.5692 53.4879C37.6821 50.9856 37.6022 48.4721 37.6022 45.8677C38.6328 46.1436 39.4071 46.7699 40.253 47.2472C41.9394 48.1687 43.5844 49.1646 45.2598 50.1055C45.4467 50.1821 45.6051 50.3153 45.7128 50.4864C45.8205 50.6576 45.8721 50.8581 45.8605 51.0601C45.8384 53.899 45.8495 56.7573 45.8495 59.8363Z" fill="#442505"/>
<path id="Vector_5" d="M1.31488 67.1836C4.07039 68.7617 6.61649 70.2185 9.17636 71.6835C9.31107 71.7562 9.42043 71.8683 9.48985 72.0048C9.55927 72.1414 9.58546 72.2959 9.5649 72.4477C9.5649 75.3336 9.5649 78.2167 9.5649 81.2764C8.17336 80.4956 6.89755 79.7865 5.62726 79.0692C4.35697 78.3519 3.14731 77.6235 1.87977 76.9172C1.52156 76.7186 1.30385 76.5117 1.30661 76.0509C1.32314 73.1733 1.31488 70.2764 1.31488 67.1836Z" fill="#442505"/>
<path id="Vector_6" d="M73.8923 67.1973C75.9203 68.3505 77.7142 69.5838 79.6789 70.4253C81.7813 71.3274 82.3985 72.6876 82.1836 74.8727C81.9797 76.9364 82.1395 79.036 82.1395 81.2956C80.1142 80.1479 78.3149 78.9256 76.353 78.0759C74.2643 77.1737 73.625 75.8218 73.8454 73.6312C74.0548 71.5702 73.8923 69.4707 73.8923 67.1973Z" fill="#442505"/>
<path id="Vector_7" d="M37.6022 80.4102C39.6248 81.5606 41.4214 82.7911 43.3888 83.6354C45.4802 84.5376 46.1222 85.8839 45.8991 88.0773C45.6924 90.141 45.855 92.2434 45.855 94.5057C43.8379 93.3635 42.0358 92.144 40.0684 91.2915C37.9907 90.3893 37.3129 89.0512 37.5554 86.8523C37.7703 84.7886 37.6022 82.6918 37.6022 80.4102Z" fill="#442505"/>
<path id="Vector_8" d="M57.395 11.0522C57.395 14.1809 57.395 17.122 57.395 20.063C57.4087 20.1657 57.3922 20.2702 57.3477 20.3638C57.3032 20.4573 57.2325 20.5359 57.1443 20.59C54.5348 22.0826 51.9281 23.5807 49.1533 25.1726C49.1533 22.0274 49.1533 19.0864 49.1533 16.1425C49.1392 16.0405 49.1552 15.9365 49.1993 15.8434C49.2433 15.7503 49.3135 15.6721 49.4013 15.6183L57.395 11.0522Z" fill="#442505"/>
<path id="Vector_9" d="M57.395 80.4102C57.395 83.5278 57.395 86.4413 57.395 89.3575C57.4071 89.493 57.3783 89.6289 57.3125 89.7479C57.2467 89.8669 57.1469 89.9635 57.0258 90.0251C54.4632 91.4846 51.9088 92.9524 49.2828 94.4616C49.0651 94.0008 49.1533 93.5953 49.1505 93.209C49.1505 90.7664 49.1505 88.3256 49.1505 85.8867C49.1505 85.5198 49.0789 85.1528 49.517 84.9073C52.0824 83.4588 54.6368 81.9883 57.395 80.4102Z" fill="#442505"/>
<path id="Vector_10" d="M37.6022 11.0439C39.633 12.1972 41.4269 13.436 43.3888 14.2747C45.4968 15.1769 46.1085 16.5426 45.8908 18.7249C45.6869 20.7334 45.8412 22.7751 45.8329 24.7946C45.8329 24.8471 45.7751 24.9022 45.6924 25.0457C43.9711 24.0672 42.2498 23.0896 40.5286 22.1129C39.9334 21.7736 39.3795 21.3239 38.743 21.0949C37.6986 20.7169 37.5581 19.9913 37.5801 19.0146C37.6408 16.4294 37.6022 13.8305 37.6022 11.0439Z" fill="#442505"/>
<path id="Vector_11" d="M21.105 24.4774V33.2757C21.1169 33.3781 21.0991 33.4818 21.0537 33.5743C21.0082 33.6668 20.937 33.7442 20.8487 33.7972C18.2392 35.2898 15.6297 36.7879 12.8577 38.3771C12.8577 35.2263 12.8577 32.2825 12.8577 29.3414C12.8515 29.2216 12.8813 29.1027 12.9432 28.9999C13.005 28.8972 13.0962 28.8153 13.2049 28.7648C15.7767 27.3191 18.3485 25.8697 20.9203 24.4167C20.9341 24.4139 20.9782 24.4443 21.105 24.4774Z" fill="#442505"/>
<path id="Vector_12" d="M93.6851 24.2598V33.1326C93.6851 33.4085 93.6851 33.6678 93.3765 33.8361C90.7891 35.3094 88.2099 36.7938 85.4379 38.3857V34.032C85.4379 32.5863 85.4379 31.1434 85.4379 29.7004C85.4379 29.3694 85.3497 29.0162 85.7437 28.7927C88.3367 27.3222 90.9186 25.8407 93.6851 24.2598Z" fill="#442505"/>
<path id="Vector_13" d="M57.3951 45.7383C57.3951 48.8614 57.3951 51.808 57.3951 54.7463C57.4021 54.8656 57.3737 54.9843 57.3134 55.0875C57.253 55.1906 57.1635 55.2735 57.0561 55.3257C54.4742 56.799 51.895 58.2805 49.1506 59.8532C49.1506 56.7107 49.1506 53.7696 49.1506 50.8258C49.1365 50.7238 49.1525 50.6198 49.1965 50.5267C49.2406 50.4336 49.3108 50.3554 49.3986 50.3016L57.3951 45.7383Z" fill="#442505"/>
<path id="Vector_14" d="M21.1077 67.3242V76.0867C21.1312 76.2214 21.1133 76.36 21.0562 76.4842C20.9991 76.6084 20.9056 76.7123 20.7881 76.782C18.2034 78.2552 15.6242 79.7396 12.8605 81.3232C12.8605 79.1905 13.034 77.2317 12.8164 75.3169C12.5408 72.8339 13.2104 71.2199 15.6628 70.2487C17.4319 69.5479 19.019 68.3919 20.6916 67.4429C20.8265 67.391 20.9657 67.3513 21.1077 67.3242Z" fill="#442505"/>
<path id="Vector_15" d="M85.4379 81.3121C85.4379 78.1779 85.4379 75.2589 85.4379 72.34C85.4276 72.2042 85.4587 72.0684 85.5271 71.9507C85.5955 71.833 85.6979 71.7388 85.8209 71.6806C88.3808 70.2266 90.9379 68.7616 93.6879 67.189V75.8356C93.6879 76.2053 93.7457 76.5667 93.3104 76.8122C90.7422 78.2773 88.1934 79.745 85.4379 81.3121Z" fill="#442505"/>
</g>
<defs>
<linearGradient id="paint0_linear_20_11255" x1="114.85" y1="-25.2018" x2="-1.99633" y2="119.983" gradientUnits="userSpaceOnUse">
<stop stop-color="#FFFFBF"/>
<stop offset="0.5" stop-color="#FF8610"/>
<stop offset="1" stop-color="#761C00"/>
</linearGradient>
<clipPath id="clip0_20_11255">
<rect width="99" height="99" fill="white" transform="translate(-2)"/>
</clipPath>
</defs>
</svg>
