<svg width="96" height="98" viewBox="0 0 96 98" fill="none" xmlns="http://www.w3.org/2000/svg">
<g id="icon" clip-path="url(#clip0_20_11225)">
<path id="Vector" d="M87.8268 38.8016C87.0235 38.7041 86.8537 38.2715 86.6961 37.6622C85.8277 34.3166 84.5014 31.1084 82.7551 28.1294C82.4246 27.5658 82.3701 27.1849 82.8187 26.6396C84.0952 25.1098 84.8044 23.1825 84.8256 21.1862C84.8741 17.2865 83.225 14.2552 79.7963 12.3937C76.3676 10.5322 72.9541 10.7759 69.7376 12.9817C69.0495 13.4539 68.5826 13.5179 67.8399 13.0822C65.2105 11.5021 62.3708 10.306 59.4061 9.52989C58.145 9.22523 57.6114 8.69207 57.3416 7.37594C56.3928 2.77862 52.2941 -0.17658 47.3921 0.00926245C43.0691 0.170732 39.2069 3.69564 38.6006 8.10407C38.5097 8.77128 38.2975 9.06071 37.6335 9.23741C34.2303 10.1347 30.9661 11.4982 27.9326 13.2894C27.3869 13.6123 27.0686 13.5788 26.5563 13.201C25.4461 12.3365 24.1523 11.7413 22.7757 11.4617C21.399 11.1822 19.9768 11.2259 18.6197 11.5894C11.9503 13.2833 9.16731 20.9028 13.1447 26.6061C13.5297 27.1575 13.5479 27.5201 13.2114 28.0959C11.4456 31.108 10.1078 34.3536 9.23703 37.7384C9.08849 38.3233 8.90358 38.7041 8.16086 38.7986C3.68629 39.3713 0.127249 43.3319 0.00598705 47.78C-0.130433 52.7581 3.03752 56.8862 7.71822 57.7088C8.67013 57.8764 9.09458 58.242 9.34013 59.1864C10.3646 63.0429 11.9806 66.7154 14.13 70.0719C14.9485 71.3759 15.9307 71.6897 16.9463 70.9859C17.877 70.3522 17.977 69.3407 17.1827 68.0764C15.2718 65.0584 13.8151 61.7732 12.8598 58.3273C12.693 57.718 12.6839 57.4133 13.3478 57.1086C17.0372 55.366 19.0623 52.4291 19.0623 48.307C19.0623 44.185 17.016 41.2633 13.3478 39.4993C12.7779 39.2251 12.6415 38.9692 12.8173 38.3781C13.6332 35.6112 14.7357 32.9379 16.1065 30.4021C16.4097 29.8202 16.7129 29.6527 17.3343 29.9391C18.371 30.424 19.5084 30.6517 20.6508 30.6032C27.5718 30.5758 32.1131 23.983 29.7455 17.6186C29.415 16.7229 29.606 16.3756 30.3881 15.9673C32.7626 14.7184 35.2495 13.6983 37.8154 12.9207C38.4915 12.7197 38.8522 12.741 39.1978 13.5087C40.8864 17.2622 43.8876 19.2973 47.9347 19.2973C51.9818 19.2973 55.0467 17.2591 56.7262 13.4448C57.0051 12.8354 57.3143 12.6801 57.9388 12.869C60.6956 13.6878 63.3542 14.8096 65.8663 16.2141C66.4211 16.5188 66.4726 16.8235 66.2301 17.3749C65.4707 19.0903 65.2835 21.0064 65.6966 22.8374C66.9789 28.8301 72.8601 32.0504 78.5776 29.8842C79.29 29.6131 79.5568 29.7776 79.8781 30.3869C81.243 32.89 82.3385 35.5321 83.1462 38.2685C83.3341 38.9204 83.1946 39.1824 82.5944 39.4871C78.8838 41.2359 76.9133 44.1972 76.9224 48.3222C76.9315 52.4473 78.9323 55.302 82.5702 57.0538C83.1462 57.331 83.4099 57.5717 83.1522 58.242C82.8491 59.0524 82.6459 59.9085 82.3549 60.728C81.4067 63.373 80.1672 65.9032 78.6594 68.2714C77.7985 69.6302 78.3927 71.0773 79.8084 71.2296C80.7179 71.3271 81.2969 70.9067 81.7668 70.1603C83.9571 66.7404 85.6133 63.0036 86.6779 59.0798C86.8871 58.2877 87.1357 57.8429 88.1058 57.6997C92.7319 57.0142 96.0969 52.8251 96.009 48.0359C95.912 43.3624 92.3924 39.3561 87.8268 38.8016ZM15.4578 48.2461C15.4759 49.0336 15.3379 49.8168 15.0517 50.5502C14.7655 51.2835 14.3369 51.9522 13.7909 52.5174C13.2449 53.0826 12.5924 53.5328 11.8715 53.842C11.1505 54.1511 10.3755 54.3129 9.59174 54.318C6.16912 54.3819 3.59535 51.8197 3.46499 48.3405C3.34676 45.0502 6.27522 42.2108 9.50684 42.226C11.0892 42.2316 12.6046 42.8681 13.7204 43.9957C14.8361 45.1233 15.461 46.6498 15.4578 48.24V48.2461ZM20.7842 26.9564C19.1991 26.9621 17.6762 26.3368 16.5485 25.2173C15.4209 24.0977 14.7802 22.575 14.7666 20.9821C14.7714 19.3675 15.4117 17.8205 16.5477 16.6788C17.6837 15.5372 19.2231 14.8937 20.8297 14.8889C22.4123 14.9221 23.9197 15.5739 25.0319 16.7058C26.1442 17.8378 26.7736 19.3608 26.7867 20.9516C26.7778 22.5456 26.1416 24.0714 25.0168 25.1954C23.8921 26.3194 22.3704 26.9504 20.7842 26.9503V26.9564ZM54.0009 9.7005C53.9008 12.7471 51.7575 15.6627 48.0075 15.6932C44.4272 15.7236 41.9444 12.8476 41.9626 9.53903C41.9869 6.52289 44.6485 3.39099 48.1166 3.66518C50.936 3.39099 54.11 6.32181 54.0009 9.6944V9.7005ZM75.1035 26.9564C71.8173 26.9351 69.1344 24.2541 69.1738 21.0338C69.2192 17.5181 71.8627 14.8401 75.2581 14.8706C76.844 14.8993 78.3555 15.5514 79.4686 16.687C80.5816 17.8227 81.2076 19.3515 81.2121 20.9455C81.2082 21.7443 81.0465 22.5344 80.7365 23.2699C80.4264 24.0054 79.9742 24.6718 79.406 25.2304C78.8378 25.7889 78.1649 26.2286 77.4263 26.5239C76.6878 26.8191 75.8982 26.9641 75.1035 26.9503V26.9564ZM85.9776 54.2844C84.4484 54.2117 83.0081 53.541 81.9642 52.4157C80.9203 51.2903 80.3555 49.7994 80.3904 48.2613C80.3983 47.4544 80.5655 46.657 80.8825 45.9155C81.1994 45.1741 81.6599 44.5032 82.2369 43.942C82.814 43.3808 83.4962 42.9404 84.244 42.6464C84.9918 42.3523 85.7903 42.2104 86.5931 42.229C89.8793 42.3509 92.5258 45.1385 92.4227 48.374C92.3105 51.9782 89.6488 54.4916 85.9776 54.2784V54.2844Z" fill="url(#paint0_linear_20_11225)"/>
<path id="Vector_2" d="M83.2372 91.9953C83.0467 88.3593 82.5898 84.7423 81.87 81.1738C81.2819 78.0175 79.9904 75.3579 77.2953 73.4933C76.2149 72.7274 75.0903 72.0265 73.9273 71.3942C71.0972 69.9562 68.1345 68.7981 65.0813 67.9363C64.669 67.8145 63.9596 67.8358 64.2446 67.0589C64.6599 65.9256 64.1354 65.1731 63.3533 64.4724C62.5711 63.7716 61.8739 63.0587 61.1039 62.3854C59.87 61.3069 59.1728 61.3435 57.9814 62.486C54.8649 65.4777 51.7303 68.4482 48.6563 71.4795C47.9924 72.1346 47.6499 72.034 47.0466 71.443C43.9605 68.4238 40.835 65.4442 37.7155 62.4586C36.5605 61.3496 35.7238 61.3313 34.5687 62.3915C33.7048 63.1867 32.8741 64.0184 32.0222 64.8288C31.4917 65.3315 31.131 65.9591 31.3856 66.6568C31.7161 67.5708 31.3856 67.8023 30.5671 68.0491C26.0956 69.3774 21.7484 71.0043 18.062 73.996C16.425 75.3244 14.9637 76.8537 14.6363 79.0564C14.03 83.2181 13.4722 87.3919 12.9296 91.5627C12.7355 93.0434 13.2327 93.8446 14.2938 94C15.5064 94.1889 16.3279 93.5004 16.5341 92.0289C17.0191 88.574 17.6194 85.1314 17.9104 81.6704C18.1196 79.1722 19.3201 77.5118 21.2724 76.2018C24.4464 74.0691 27.9691 72.753 31.5796 71.5984C32.6528 71.2541 32.9257 71.5984 33.1742 72.5489C33.7472 74.7089 34.3869 76.8477 35.0629 78.9833C35.5176 80.4426 36.4422 80.86 37.8701 80.3025C38.9251 79.8882 39.9922 79.4799 41.0169 79.0168C41.5716 78.767 41.8323 78.8066 42.1052 79.4342C42.763 80.9575 43.0904 82.3894 42.378 84.0041C41.8475 85.2228 41.5595 86.5237 41.1654 87.791C40.3691 90.403 39.5748 93.0139 38.7826 95.6238C38.6392 96.0017 38.6323 96.4181 38.763 96.8006C38.8937 97.1831 39.1539 97.5073 39.498 97.7169C40.2135 98.2074 40.9502 97.9972 41.6201 97.5859C42.0991 97.2812 42.2689 96.7663 42.4417 96.2575C42.8903 95.8584 43.0298 95.2979 43.1965 94.7586C44.1757 91.6145 45.0973 88.4522 46.1098 85.3142C46.5342 83.995 46.607 84.0376 48.432 83.9858C49.484 83.9554 49.775 84.519 50.0145 85.3629C50.9239 88.5314 51.9789 91.6511 52.9278 94.8074C53.0884 95.3497 53.2309 95.9102 53.722 96.2758C53.9282 97.0009 54.2708 97.6224 55.0559 97.8326C56.5717 98.2378 57.7116 96.9826 57.2296 95.3954C56.0745 91.5871 54.968 87.7575 53.6433 84.0102C53.085 82.4822 53.1273 80.7979 53.7615 79.3002C53.9615 78.7701 54.1677 78.6908 54.6709 78.9102C55.6349 79.3459 56.6232 79.7267 57.6024 80.1288C59.4214 80.8631 60.2156 80.4792 60.8068 78.5659C61.4889 76.3572 62.1619 74.1453 62.844 71.9365C62.9622 71.5466 62.9895 71.1322 63.6443 71.3272C67.6975 72.4758 71.6324 73.9046 75.0914 76.3846C76.489 77.3869 77.647 78.6116 78.0199 80.4274C78.6535 83.5136 79.2689 86.5968 79.4417 89.75C79.4842 90.5452 79.566 91.3373 79.6236 92.1324C79.7115 93.3511 80.3663 94.0274 81.4425 94.0244C82.5187 94.0213 83.2857 93.2627 83.2372 91.9953ZM45.4338 77.1797C46.6009 76.8172 47.6074 75.8545 49.0383 76.5948C50.6177 77.4113 50.8815 77.984 49.8568 79.5012C49.3445 80.2629 48.5199 79.6993 47.9591 79.8821C45.9674 79.8821 45.6521 79.6109 45.2671 77.7494C45.2155 77.4966 45.1701 77.265 45.4338 77.1797ZM38.4249 76.0464L38.2127 76.1256C37.8792 76.1439 37.8883 75.8666 37.8277 75.6656C37 72.8718 36.1936 70.0751 35.3448 67.2874C35.1781 66.7421 35.5055 66.5227 35.8117 66.2577C36.1997 65.9225 36.4453 66.2912 36.6696 66.5044C38.9918 68.7285 41.3048 70.9626 43.6088 73.207C43.8059 73.3989 44.3091 73.6731 43.6664 73.9351C41.9172 74.645 40.1741 75.3426 38.4249 76.0464ZM60.4096 67.3331C59.5578 70.1208 58.7423 72.9206 57.9329 75.7204C57.7964 76.1835 57.5873 76.2048 57.1901 76.0251C55.3712 75.2817 53.5705 74.5566 51.5757 73.7523L59.194 66.4405C59.4153 66.2272 59.6336 65.9804 59.958 66.2881C60.2823 66.5958 60.5673 66.7847 60.4096 67.3331Z" fill="url(#paint1_linear_20_11225)"/>
<path id="Vector_3" d="M63.7443 37.5524C62.3619 28.4583 54.4799 22.6241 46.322 23.4741C39.5496 24.1748 33.5713 29.5277 32.2071 36.2424C31.4038 40.2029 31.9919 44.0995 32.6982 47.987C33.6289 53.1175 35.7086 57.6691 39.5526 61.2976C44.2515 65.7395 50.6025 65.9802 55.353 61.8521C56.9213 60.4745 58.2789 58.872 59.3819 57.0963C62.7166 51.8227 63.6776 45.9123 63.9292 39.8191C63.9667 39.0586 63.9045 38.2965 63.7443 37.5524ZM59.2364 48.0175C58.3978 52.1349 56.3229 55.8949 53.2915 58.7902C49.7659 62.1689 45.8188 62.1933 42.2355 58.8146C39.0342 55.7985 37.2031 52.0512 36.327 47.7768C35.8405 45.3297 35.5425 42.8485 35.4357 40.3553C35.369 33.013 40.8076 27.1178 47.7984 27.0173C53.4947 26.935 58.4755 30.7798 59.8912 36.7664C60.7855 40.5746 60.0367 44.3067 59.2364 48.0175Z" fill="url(#paint2_linear_20_11225)"/>
<path id="Vector_4" d="M53.7402 96.2757C53.2461 95.9101 53.1066 95.3617 52.946 94.8072C51.9971 91.654 50.9361 88.5342 50.0327 85.3627C49.7932 84.5188 49.5021 83.9552 48.4502 83.9857C46.6313 84.0375 46.5524 83.9857 46.128 85.314C45.1155 88.4489 44.1939 91.6113 43.2147 94.7584C43.048 95.2977 42.9116 95.8583 42.4599 96.2574C43.6725 92.3181 44.8851 88.3819 46.0704 84.4396C46.2402 83.8729 46.5433 83.6871 47.1284 83.6719C49.7659 83.5957 49.7598 83.5774 50.548 86.1092C51.603 89.497 52.6671 92.8858 53.7402 96.2757Z" fill="url(#paint3_linear_20_11225)"/>
<path id="Vector_5" d="M67.8339 90.1063C66.7395 90.1063 65.6421 90.1307 64.5507 90.1063C63.3745 90.0758 62.6318 89.3629 62.6257 88.3149C62.6217 88.0755 62.6652 87.8377 62.7539 87.6155C62.8425 87.3933 62.9745 87.1911 63.1419 87.0209C63.3094 86.8506 63.509 86.7156 63.7291 86.624C63.9491 86.5323 64.1852 86.4857 64.4234 86.4869C66.689 86.4321 68.9535 86.4321 71.2171 86.4869C71.6974 86.5044 72.152 86.7097 72.4839 87.0592C72.8157 87.4086 72.9986 87.8745 72.9936 88.3575C72.9693 89.3203 72.1993 90.0667 71.1171 90.0972C70.0348 90.1276 68.9283 90.1063 67.8339 90.1063Z" fill="url(#paint4_linear_20_11225)"/>
</g>
<defs>
<linearGradient id="paint0_linear_20_11225" x1="113.31" y1="-18.1582" x2="37.3609" y2="108.806" gradientUnits="userSpaceOnUse">
<stop stop-color="#FFFFBF"/>
<stop offset="0.5" stop-color="#FF8610"/>
<stop offset="1" stop-color="#761C00"/>
</linearGradient>
<linearGradient id="paint1_linear_20_11225" x1="95.9153" y1="52.3383" x2="64.7027" y2="127.286" gradientUnits="userSpaceOnUse">
<stop stop-color="#FFFFBF"/>
<stop offset="0.5" stop-color="#FF8610"/>
<stop offset="1" stop-color="#761C00"/>
</linearGradient>
<linearGradient id="paint2_linear_20_11225" x1="69.7271" y1="12.8547" x2="19.7424" y2="61.0296" gradientUnits="userSpaceOnUse">
<stop stop-color="#FFFFBF"/>
<stop offset="0.5" stop-color="#FF8610"/>
<stop offset="1" stop-color="#761C00"/>
</linearGradient>
<linearGradient id="paint3_linear_20_11225" x1="55.7727" y1="80.4366" x2="40.6025" y2="97.2753" gradientUnits="userSpaceOnUse">
<stop stop-color="#FFFFBF"/>
<stop offset="0.5" stop-color="#FF8610"/>
<stop offset="1" stop-color="#761C00"/>
</linearGradient>
<linearGradient id="paint4_linear_20_11225" x1="74.8618" y1="85.5114" x2="72.5236" y2="93.7155" gradientUnits="userSpaceOnUse">
<stop stop-color="#FFFFBF"/>
<stop offset="0.5" stop-color="#FF8610"/>
<stop offset="1" stop-color="#761C00"/>
</linearGradient>
<clipPath id="clip0_20_11225">
<rect width="96" height="98" fill="white"/>
</clipPath>
</defs>
</svg>
