<svg width="96" height="97" viewBox="0 0 96 97" fill="none" xmlns="http://www.w3.org/2000/svg">
<g id="Isolation_Mode" clip-path="url(#clip0_20_11271)">
<path id="Vector" d="M96.0031 48.7387C95.9816 55.1423 94.6906 61.4781 92.205 67.3793C89.7194 73.2806 86.0885 78.63 81.5224 83.1181C76.9563 87.6062 71.5457 91.1438 65.6038 93.5261C59.6619 95.9084 53.3066 97.0882 46.9058 96.9971C20.0939 96.7078 -1.17041 74.8195 -0.99687 47.9691C-0.826223 21.5903 21.1034 -0.118632 47.5566 -4.39887e-06C74.4437 0.121517 96.1159 21.923 96.0031 48.7387ZM47.5306 3.46624C22.7694 3.46624 2.50863 23.5983 2.47682 48.241C2.445 73.3033 22.5438 93.5714 47.4207 93.5627C59.3738 93.5627 70.8385 88.818 79.298 80.3701C87.7574 71.9223 92.5203 60.4617 92.541 48.5043C92.5873 23.7198 72.3497 3.46624 47.5306 3.46624Z" fill="url(#paint0_linear_20_11271)"/>
<path id="Vector_2" d="M49.2397 19.2869V19.721C49.2397 22.3857 49.2398 22.3857 51.7417 23.193C54.5044 24.1014 56.9155 25.8485 58.6396 28.1914C60.3637 30.5342 61.3152 33.3563 61.3615 36.2652C61.376 37.5556 60.7975 38.3108 59.8083 38.305C58.6514 38.305 57.9427 37.547 57.8965 36.2797C57.6766 30.2239 52.9101 25.7449 46.9548 26.0024C41.2598 26.2484 36.8924 31.1584 37.1209 37.0638C37.3321 42.5612 41.7718 46.7305 47.432 46.7826C55.4438 46.8549 61.697 53.391 61.3413 61.3246C61.0781 67.2242 56.9362 72.3686 51.1111 74.0323C49.529 74.4836 49.2426 74.854 49.2369 76.454C49.2369 77.5014 49.26 78.5488 49.2369 79.5933C49.2021 80.6986 48.4877 81.4277 47.5015 81.4248C46.5152 81.4219 45.8181 80.6928 45.7834 79.5875C45.7545 78.6501 45.7834 77.7097 45.7834 76.7723C45.7834 74.7845 45.5781 74.501 43.6981 73.9455C40.8387 73.1092 38.322 71.3792 36.5165 69.0087C34.7111 66.6382 33.7117 63.7518 33.6646 60.772C33.6415 59.4815 34.2257 58.7293 35.2177 58.7466C36.3747 58.7466 37.0804 59.5018 37.1267 60.772C37.3147 66.0611 40.8173 70.0655 46.0235 70.9422C51.8082 71.9143 57.3585 67.4846 57.8821 61.4924C58.4056 55.5003 53.8617 50.3414 47.9093 50.2662C41.095 50.1823 35.6053 45.984 34.0724 39.6852C33.2443 36.2453 33.7598 32.619 35.5138 29.5466C37.2677 26.4741 40.1277 24.1871 43.51 23.1525C45.6937 22.4841 45.7863 22.3568 45.7863 20.0421C45.7863 19.1741 45.7661 18.3061 45.7863 17.4381C45.8268 16.3328 46.5383 15.6095 47.5217 15.6153C48.5051 15.6211 49.1906 16.3531 49.2369 17.4612C49.2571 18.0602 49.2369 18.6736 49.2397 19.2869Z" fill="url(#paint1_linear_20_11271)"/>
<path id="Vector_3" d="M12.8571 47.5985C13.1203 38.1111 16.9469 29.405 24.6868 22.4812C25.6499 21.6132 26.6275 21.5756 27.3506 22.3452C28.0737 23.1148 27.9753 24.1825 26.9775 25.0737C21.3085 30.1428 17.7539 36.4012 16.7126 43.9442C15.2375 54.6496 18.5435 63.7753 26.2573 71.3067C26.5176 71.5584 26.7982 71.787 27.0585 72.0358C27.9609 72.9038 28.0621 73.931 27.3303 74.6919C26.5986 75.4529 25.6499 75.4008 24.7272 74.608C21.9703 72.2177 19.6158 69.3993 17.7539 66.2607C14.5116 60.7749 12.9092 54.8261 12.8571 47.5985Z" fill="url(#paint2_linear_20_11271)"/>
<path id="Vector_4" d="M82.1573 49.3434C81.9057 58.8481 78.1081 67.5716 70.3711 74.5157C69.3646 75.4213 68.3465 75.4676 67.6234 74.6603C66.9003 73.8531 67.0594 72.8375 68.0659 71.9348C73.7291 66.8569 77.2693 60.5899 78.2989 53.044C79.7625 42.3386 76.4392 33.2187 68.7022 25.6989C68.3927 25.4095 68.0456 25.1202 67.7477 24.8308C67.0333 24.0815 66.9929 23.0948 67.6263 22.4004C68.2597 21.706 69.298 21.6134 70.1281 22.331C73.8903 25.5599 76.9062 29.5681 78.9671 34.078C81.0785 38.6438 82.0995 43.4699 82.1573 49.3434Z" fill="url(#paint3_linear_20_11271)"/>
</g>
<defs>
<linearGradient id="paint0_linear_20_11271" x1="113.481" y1="-24.6881" x2="-0.999398" y2="117.537" gradientUnits="userSpaceOnUse">
<stop stop-color="#FFFFBF"/>
<stop offset="0.5" stop-color="#FF8610"/>
<stop offset="1" stop-color="#761C00"/>
</linearGradient>
<linearGradient id="paint1_linear_20_11271" x1="66.3524" y1="-1.1336" x2="1.06133" y2="33.0062" gradientUnits="userSpaceOnUse">
<stop stop-color="#FFFFBF"/>
<stop offset="0.5" stop-color="#FF8610"/>
<stop offset="1" stop-color="#761C00"/>
</linearGradient>
<linearGradient id="paint2_linear_20_11271" x1="30.5178" y1="8.19757" x2="-9.55155" y2="22.1383" gradientUnits="userSpaceOnUse">
<stop stop-color="#FFFFBF"/>
<stop offset="0.5" stop-color="#FF8610"/>
<stop offset="1" stop-color="#761C00"/>
</linearGradient>
<linearGradient id="paint3_linear_20_11271" x1="84.8566" y1="8.24448" x2="44.7589" y2="22.2205" gradientUnits="userSpaceOnUse">
<stop stop-color="#FFFFBF"/>
<stop offset="0.5" stop-color="#FF8610"/>
<stop offset="1" stop-color="#761C00"/>
</linearGradient>
<clipPath id="clip0_20_11271">
<rect width="97" height="97" fill="white" transform="translate(-1)"/>
</clipPath>
</defs>
</svg>
