<svg width="96" height="97" viewBox="0 0 96 97" fill="none" xmlns="http://www.w3.org/2000/svg">
<g id="Isolation_Mode" clip-path="url(#clip0_21_11289)">
<path id="Vector" d="M79.8905 17.8445C81.421 17.8445 82.8975 17.8445 84.374 17.8445C85.5671 17.8445 86.2906 18.4678 86.2987 19.4444C86.3068 20.4211 85.5779 21.0632 84.4091 21.0632C82.9326 21.0767 81.4561 21.0632 79.9147 21.0632V27.5383H83.6506C86.08 27.5383 88.5094 27.5383 90.9226 27.5383C92.0482 27.5383 92.75 28.1642 92.777 29.1085C92.804 30.0528 92.0725 30.7597 90.9037 30.7624C87.2704 30.7624 83.6371 30.7624 79.9256 30.7624V37.2375C81.4912 37.2375 83.0595 37.2159 84.6305 37.2375C85.6104 37.2564 86.269 37.8985 86.3095 38.7727C86.3249 39.1985 86.1717 39.6132 85.8832 39.9268C85.5946 40.2405 85.194 40.4278 84.7682 40.4481C84.4686 40.4751 84.1635 40.4481 83.8612 40.4481H79.877C79.6421 44.201 77.5205 46.4538 74.3865 48.1184C69.0419 50.9567 63.7621 53.9217 58.4903 56.8949C55.4617 58.6027 52.5329 58.6216 49.4961 56.8949C44.0813 53.8354 38.6179 50.8568 33.1734 47.8432C29.7749 45.9546 28.6601 44.3709 28.0285 40.4346C26.4736 40.4346 24.8973 40.4589 23.3236 40.4346C22.3059 40.413 21.6284 39.7061 21.6527 38.7888C21.677 37.8715 22.3302 37.2807 23.3019 37.2186C23.5719 37.2024 23.8418 37.2186 24.1117 37.2186H28.0312V30.7435H26.9947C23.6934 30.7435 20.3921 30.7435 17.0935 30.7435C15.9463 30.7435 15.2472 30.1607 15.204 29.2245C15.1419 28.2128 15.8977 27.5221 17.1205 27.5194C20.4893 27.5194 23.8553 27.5194 27.2241 27.5194H28.0501V21.0443H24.4978C24.0929 21.0443 23.688 21.0632 23.2858 21.0443C22.3194 20.985 21.6662 20.3401 21.65 19.4606C21.6338 18.5811 22.3086 17.8418 23.3344 17.8418C24.8784 17.8121 26.4251 17.8418 28.0285 17.8418C28.1094 17.3832 28.1823 16.965 28.2633 16.5495C28.4547 15.398 28.9053 14.3051 29.581 13.3531C30.2566 12.401 31.1398 11.6148 32.1638 11.0537C38.1761 7.67588 44.2046 4.32681 50.2493 1.00651C52.6598 -0.315493 55.2025 -0.34247 57.6076 0.949856C63.7261 4.26656 69.8184 7.63541 75.8847 11.0564C78.2574 12.4027 79.491 14.5773 79.8905 17.8445ZM41.0392 29.0654C41.0392 31.0834 41.0716 33.1123 41.023 35.1223C40.9987 36.1583 41.4063 36.8058 42.3025 37.3103C45.8242 39.2889 49.3279 41.2898 52.8136 43.3133C53.1652 43.5435 53.5771 43.6645 53.9974 43.6611C54.4177 43.6578 54.8276 43.5302 55.1755 43.2944C58.699 41.2566 62.2306 39.2376 65.7703 37.2375C66.1353 37.0603 66.4395 36.7788 66.6442 36.4287C66.8489 36.0785 66.945 35.6755 66.9203 35.2707C66.8987 31.1968 66.8987 27.1237 66.9203 23.0516C66.945 22.6485 66.8497 22.2471 66.6465 21.8981C66.4433 21.549 66.1413 21.2679 65.7785 21.0902C62.2405 19.0829 58.708 17.0639 55.1809 15.0332C54.8333 14.7981 54.4239 14.6708 54.0042 14.6675C53.5844 14.6641 53.1731 14.7848 52.8217 15.0144C49.3018 17.0558 45.7684 19.0739 42.2215 21.0686C41.8408 21.2479 41.5232 21.5382 41.3107 21.9013C41.0983 22.2644 41.0008 22.6833 41.0311 23.1029C41.0635 25.0859 41.0392 27.0716 41.0392 29.0654Z" fill="url(#paint0_linear_21_11289)"/>
<path id="Vector_2" d="M36.094 78.6429C39.4871 78.6429 42.8882 78.4972 46.2705 78.678C50.4814 78.9046 54.4494 78.1384 58.4039 76.7571C63.4786 74.9818 68.6397 73.4574 73.7711 71.8441C74.51 71.616 75.2641 71.4402 76.0277 71.318C80.209 70.6165 83.9799 74.7794 82.9488 78.9397C82.7985 79.6522 82.4851 80.3201 82.0331 80.8912C81.5812 81.4623 81.003 81.921 80.3439 82.2312C73.5309 85.4391 66.7448 88.7064 59.8561 91.7443C57.9261 92.5914 55.6857 92.7587 53.5748 93.158C47.0965 94.3856 40.6181 95.5538 34.1397 96.7868C31.8561 97.2211 29.6454 96.9567 27.4643 96.3065C23.086 95.0007 18.7212 93.6409 14.3429 92.327C13.7072 92.1275 13.0466 92.0176 12.3805 92.0006C8.64195 91.9682 4.90338 92.0006 1.16483 91.9844C-0.479059 91.9844 -0.994629 91.461 -0.994629 89.8044C-0.994629 84.011 -0.994629 78.2203 -0.994629 72.4322C-0.994629 70.7055 -0.48711 70.1902 1.21346 70.1902C5.32182 70.1902 9.43016 70.1255 13.5385 70.2145C15.6602 70.252 17.7647 69.8286 19.7065 68.9734C23.5989 67.3061 27.4508 65.5308 31.4053 64.0281C34.8874 62.7061 38.456 61.465 42.2485 61.4947C43.7889 61.493 45.316 61.7794 46.7509 62.3391C47.4558 62.6264 48.0948 63.0541 48.6289 63.5962C49.163 64.1382 49.5811 64.7834 49.8577 65.4922C50.1342 66.201 50.2634 66.9588 50.2375 67.7191C50.2115 68.4795 50.0309 69.2267 49.7067 69.915C49.3975 70.545 48.9695 71.1093 48.4461 71.577C45.3554 74.3936 41.5116 75.8937 37.7946 77.6339L36.0616 78.4433L36.094 78.6429Z" fill="url(#paint1_linear_21_11289)"/>
<path id="Vector_3" d="M15.0934 21.0711C14.5535 21.0711 14.0137 21.1034 13.4738 21.0711C13.0647 21.058 12.6764 20.8883 12.389 20.597C12.1016 20.3058 11.9372 19.9153 11.9298 19.5063C11.9222 19.2947 11.9573 19.0838 12.0329 18.8861C12.1085 18.6884 12.2231 18.5079 12.3699 18.3553C12.5167 18.2028 12.6927 18.0813 12.8875 17.9982C13.0822 17.915 13.2917 17.8719 13.5035 17.8713C14.6129 17.8281 15.7277 17.8254 16.8371 17.8713C17.2473 17.8797 17.6379 18.0476 17.9262 18.3392C18.2145 18.6309 18.3777 19.0234 18.3811 19.4334C18.3865 19.6445 18.35 19.8546 18.2736 20.0515C18.1972 20.2483 18.0825 20.4281 17.9362 20.5804C17.7898 20.7327 17.6147 20.8545 17.421 20.9387C17.2272 21.0229 17.0187 21.0679 16.8075 21.0711C16.2514 21.1034 15.6764 21.0711 15.0934 21.0711Z" fill="url(#paint2_linear_21_11289)"/>
<path id="Vector_4" d="M92.7096 21.0711C92.1697 21.0711 91.6299 21.1034 91.09 21.0711C90.6809 21.058 90.2925 20.8883 90.0051 20.597C89.7178 20.3058 89.5534 19.9153 89.546 19.5063C89.5384 19.2947 89.5734 19.0838 89.649 18.8861C89.7246 18.6884 89.8393 18.5079 89.9861 18.3553C90.1329 18.2028 90.3089 18.0813 90.5037 17.9982C90.6984 17.915 90.9079 17.8719 91.1197 17.8713C92.2291 17.8281 93.3439 17.8254 94.4506 17.8713C94.861 17.8797 95.252 18.0475 95.5407 18.3391C95.8294 18.6307 95.9932 19.0232 95.9973 19.4334C96.0024 19.6444 95.9656 19.8543 95.8891 20.051C95.8126 20.2478 95.6979 20.4274 95.5516 20.5797C95.4053 20.7319 95.2303 20.8537 95.0368 20.938C94.8432 21.0223 94.6348 21.0676 94.4236 21.0711C93.8568 21.1034 93.2819 21.0711 92.7096 21.0711Z" fill="url(#paint3_linear_21_11289)"/>
<path id="Vector_5" d="M15.1473 40.467C14.6075 40.467 14.0676 40.4967 13.5278 40.467C13.317 40.4652 13.1086 40.422 12.9145 40.3396C12.7205 40.2573 12.5446 40.1375 12.397 39.9871C12.2493 39.8368 12.1327 39.6588 12.0539 39.4634C11.9752 39.2679 11.9358 39.0589 11.9379 38.8482C11.935 38.4376 12.0939 38.0424 12.3803 37.748C12.6668 37.4536 13.0576 37.2838 13.4684 37.2753C14.6102 37.224 15.7601 37.2213 16.9019 37.2753C17.3129 37.2956 17.6994 37.4768 17.9777 37.7798C18.2561 38.0827 18.4039 38.483 18.3892 38.8941C18.3861 39.3034 18.2253 39.6957 17.9403 39.9897C17.6553 40.2836 17.2679 40.4565 16.8587 40.4724C16.2892 40.5156 15.7142 40.4724 15.1419 40.4724L15.1473 40.467Z" fill="url(#paint4_linear_21_11289)"/>
<path id="Vector_6" d="M92.7932 37.2455C93.3331 37.2455 93.8729 37.2158 94.4128 37.2455C94.6237 37.2469 94.8322 37.29 95.0264 37.3722C95.2206 37.4544 95.3966 37.5742 95.5444 37.7246C95.6921 37.875 95.8087 38.0531 95.8873 38.2487C95.966 38.4443 96.0052 38.6535 96.0027 38.8643C96.0042 39.2748 95.8449 39.6695 95.5588 39.964C95.2728 40.2585 94.8827 40.4293 94.4722 40.4399C93.3304 40.4912 92.1832 40.4939 91.0414 40.4399C90.6296 40.421 90.242 40.2403 89.9629 39.9371C89.6839 39.6339 89.5359 39.2328 89.5513 38.8211C89.5538 38.4121 89.7139 38.0197 89.9985 37.7257C90.2831 37.4318 90.6702 37.2588 91.0791 37.2428C91.6487 37.1997 92.2237 37.2428 92.7959 37.2428L92.7932 37.2455Z" fill="url(#paint5_linear_21_11289)"/>
<path id="Vector_7" d="M63.681 25.5011C63.681 28.5309 63.681 31.4124 63.6594 34.2938C63.6341 34.4323 63.5791 34.5636 63.498 34.6786C63.4169 34.7937 63.3117 34.8898 63.1897 34.9602C60.3123 36.6302 57.424 38.2868 54.5115 39.9002C54.341 39.9757 54.156 40.0131 53.9695 40.0099C53.783 40.0066 53.5995 39.9627 53.4317 39.8813C50.5516 38.2841 47.693 36.6437 44.8398 34.9953C44.6076 34.8604 44.2999 34.5852 44.2999 34.372C44.2621 31.4609 44.2757 28.5498 44.2757 25.4688C47.0128 27.0336 49.6446 28.4365 52.1739 30.0202C53.4615 30.8296 54.5007 30.8296 55.7801 30.0202C58.0287 28.6119 60.369 27.3573 62.6823 26.0407C62.9657 25.8896 63.2519 25.7331 63.681 25.5011Z" fill="url(#paint6_linear_21_11289)"/>
<path id="Vector_8" d="M61.9049 22.763C59.3324 24.236 56.8086 25.6876 54.2712 27.1121C54.1676 27.1543 54.0562 27.1737 53.9444 27.169C53.8326 27.1644 53.7231 27.1358 53.6234 27.0851C51.113 25.666 48.6162 24.228 45.952 22.7009C46.9939 22.0993 47.9062 21.5678 48.8213 21.0417C50.3356 20.1729 51.8419 19.2853 53.3805 18.457C53.5457 18.3706 53.7273 18.3202 53.9134 18.309C54.0995 18.2978 54.2859 18.3262 54.4602 18.3923C56.8734 19.7223 59.2542 21.1064 61.6431 22.4797C61.7397 22.565 61.8274 22.6599 61.9049 22.763Z" fill="url(#paint7_linear_21_11289)"/>
</g>
<defs>
<linearGradient id="paint0_linear_21_11289" x1="106.756" y1="-14.8109" x2="44.5535" y2="88.2221" gradientUnits="userSpaceOnUse">
<stop stop-color="#FFFFBF"/>
<stop offset="0.5" stop-color="#FF8610"/>
<stop offset="1" stop-color="#761C00"/>
</linearGradient>
<linearGradient id="paint1_linear_21_11289" x1="98.2766" y1="52.4578" x2="72.1459" y2="129.367" gradientUnits="userSpaceOnUse">
<stop stop-color="#FFFFBF"/>
<stop offset="0.5" stop-color="#FF8610"/>
<stop offset="1" stop-color="#761C00"/>
</linearGradient>
<linearGradient id="paint2_linear_21_11289" x1="19.5443" y1="17.0114" x2="16.8138" y2="23.7519" gradientUnits="userSpaceOnUse">
<stop stop-color="#FFFFBF"/>
<stop offset="0.5" stop-color="#FF8610"/>
<stop offset="1" stop-color="#761C00"/>
</linearGradient>
<linearGradient id="paint3_linear_21_11289" x1="97.1605" y1="17.0114" x2="94.4299" y2="23.7519" gradientUnits="userSpaceOnUse">
<stop stop-color="#FFFFBF"/>
<stop offset="0.5" stop-color="#FF8610"/>
<stop offset="1" stop-color="#761C00"/>
</linearGradient>
<linearGradient id="paint4_linear_21_11289" x1="19.5528" y1="36.4072" x2="16.8103" y2="43.1598" gradientUnits="userSpaceOnUse">
<stop stop-color="#FFFFBF"/>
<stop offset="0.5" stop-color="#FF8610"/>
<stop offset="1" stop-color="#761C00"/>
</linearGradient>
<linearGradient id="paint5_linear_21_11289" x1="97.1654" y1="36.395" x2="94.423" y2="43.1476" gradientUnits="userSpaceOnUse">
<stop stop-color="#FFFFBF"/>
<stop offset="0.5" stop-color="#FF8610"/>
<stop offset="1" stop-color="#761C00"/>
</linearGradient>
<linearGradient id="paint6_linear_21_11289" x1="67.1779" y1="21.7679" x2="51.6402" y2="47.5315" gradientUnits="userSpaceOnUse">
<stop stop-color="#FFFFBF"/>
<stop offset="0.5" stop-color="#FF8610"/>
<stop offset="1" stop-color="#761C00"/>
</linearGradient>
<linearGradient id="paint7_linear_21_11289" x1="64.7793" y1="16.0509" x2="56.7988" y2="33.8968" gradientUnits="userSpaceOnUse">
<stop stop-color="#FFFFBF"/>
<stop offset="0.5" stop-color="#FF8610"/>
<stop offset="1" stop-color="#761C00"/>
</linearGradient>
<clipPath id="clip0_21_11289">
<rect width="97" height="97" fill="white" transform="translate(-1)"/>
</clipPath>
</defs>
</svg>
