<svg width="96" height="97" viewBox="0 0 96 97" fill="none" xmlns="http://www.w3.org/2000/svg">
<g id="Isolation_Mode" clip-path="url(#clip0_21_11282)">
<path id="Vector" d="M44.2154 29.1023C44.2154 25.4662 44.2019 21.8139 44.2154 18.1914C44.2289 14.9062 45.6794 12.4336 48.5373 10.8382C54.4151 7.56115 60.3046 4.30389 66.2058 1.06642C68.7206 -0.312975 71.3191 -0.372367 73.8394 1.00162C79.8982 4.30298 85.9461 7.62324 91.9374 11.0218C94.563 12.5091 95.9325 14.9116 95.9487 17.9376C95.9919 25.4149 95.9919 32.8923 95.9487 40.3696C95.9298 43.3956 94.5711 45.8035 91.9428 47.2908C85.9389 50.6867 79.9008 54.0222 73.8286 57.2975C71.3083 58.6661 68.6963 58.6067 66.1869 57.2354C60.2443 53.9961 54.3242 50.7245 48.4265 47.4204C45.6038 45.8386 44.2045 43.3551 44.1937 40.1158C44.2045 36.4447 44.2154 32.7735 44.2154 29.1023ZM53.9207 27.8849L54.1233 27.8282C54.3286 28.0981 54.5366 28.3546 54.7365 28.6218C56.703 31.2294 58.6668 33.8388 60.6278 36.4501C61.0951 37.0709 61.7515 37.5082 62.443 37.1249C62.9509 36.855 63.5586 36.1747 63.5694 35.6645C63.6585 31.3266 63.637 26.9833 63.6073 22.6427C63.608 22.4304 63.5652 22.2203 63.4817 22.0251C63.3982 21.83 63.2757 21.6539 63.1216 21.5078C62.9676 21.3617 62.7852 21.2486 62.5859 21.1755C62.3865 21.1023 62.1743 21.0706 61.9622 21.0824C61.7506 21.0869 61.5419 21.1335 61.3485 21.2195C61.1551 21.3054 60.9807 21.4291 60.8356 21.5831C60.6905 21.7371 60.5776 21.9185 60.5035 22.1167C60.4293 22.3148 60.3953 22.5258 60.4036 22.7371C60.3739 24.6267 60.4036 26.5163 60.4036 28.4059V30.7057C60.066 30.2981 59.8958 30.1065 59.7418 29.8959C57.8006 27.3153 55.8611 24.7329 53.9234 22.1487C53.3832 21.4387 52.797 20.8422 51.8111 21.185C50.8252 21.5278 50.6712 22.3025 50.6901 23.2149C50.7171 24.6267 50.6901 26.0412 50.6901 27.453C50.6901 30.1524 50.6901 32.8446 50.6901 35.5296C50.6901 36.3232 51.0412 37.0088 51.8111 37.1141C52.4164 37.1596 53.0176 36.983 53.502 36.6174C53.8127 36.3745 53.8991 35.7131 53.9072 35.238C53.9423 32.7762 53.9207 30.3305 53.9207 27.8849ZM70.0982 30.7678C71.719 30.7678 73.2289 30.7678 74.7362 30.7678C75.6168 30.7678 76.2435 30.4061 76.5055 29.5585C76.8269 28.5111 76.0085 27.5583 74.7605 27.5394C73.2235 27.5151 71.6893 27.5394 70.1685 27.5394V24.3001C71.7298 24.3001 73.2127 24.3001 74.693 24.3001C75.8194 24.3001 76.5217 23.6711 76.5487 22.7263C76.5757 21.7816 75.8464 21.0824 74.6741 21.0743C72.722 21.0599 70.7681 21.0599 68.8125 21.0743C67.4295 21.0743 66.8568 21.6547 66.8541 23.0476C66.8541 27.1219 66.8541 31.1961 66.8541 35.2704C66.8541 36.4798 67.4484 37.2005 68.4208 37.2329C69.3932 37.2653 70.0766 36.5067 70.0847 35.265C70.1063 33.8155 70.0982 32.3713 70.0982 30.7678ZM83.0424 24.2893V25.4932C83.0424 28.7541 83.0424 32.0177 83.0424 35.2785C83.0424 36.4771 83.6475 37.2005 84.6199 37.2248C85.5923 37.2491 86.2676 36.496 86.2703 35.2488C86.2703 32.7276 86.2703 30.2037 86.2703 27.6905V24.3001C86.8726 24.3001 87.3697 24.3244 87.864 24.3001C88.8257 24.2434 89.4847 23.5928 89.4982 22.7182C89.5059 22.5069 89.4706 22.2962 89.3945 22.0989C89.3183 21.9016 89.2028 21.7218 89.0551 21.5704C88.9074 21.4189 88.7304 21.2991 88.535 21.218C88.3395 21.1369 88.1296 21.0963 87.918 21.0986C85.7301 21.0608 83.543 21.0608 81.3568 21.0986C80.946 21.1007 80.5528 21.2651 80.2628 21.5559C79.9729 21.8467 79.8097 22.2403 79.809 22.6508C79.8029 22.8618 79.8386 23.072 79.914 23.2692C79.9893 23.4664 80.1029 23.6468 80.2482 23.8001C80.3936 23.9533 80.5677 24.0764 80.7607 24.1622C80.9537 24.248 81.1618 24.2948 81.373 24.3001C81.8782 24.3379 82.386 24.2947 83.0424 24.2947V24.2893Z" fill="url(#paint0_linear_21_11282)"/>
<path id="Vector_2" d="M41.2089 14.5983C41.0954 17.3516 40.9901 19.9647 40.8875 22.5453C39.4639 23.1688 38.0053 23.7681 36.5872 24.4348C36.3084 24.584 35.9967 24.6609 35.6805 24.6585C35.3644 24.6562 35.0539 24.5746 34.7774 24.4213C33.7083 23.8535 32.5965 23.3698 31.4522 22.9745C30.7309 22.7819 29.9725 22.7754 29.248 22.9556C28.4296 23.1612 27.6491 23.4956 26.9358 23.9463C25.4961 24.829 24.0779 24.8398 22.5382 24.2432C21.4614 23.8573 20.3606 23.5417 19.2428 23.2984C17.6221 22.9043 16.6686 23.8896 17.0818 25.4984C17.6545 27.7119 18.2758 29.9146 18.8214 32.1335C18.9322 32.6168 18.9183 33.1202 18.7809 33.5966C18.2164 35.4862 17.5329 37.3757 17.0008 39.2653C16.8269 39.9335 16.8269 40.6351 17.0008 41.3034C17.4789 43.0526 18.0596 44.7775 18.6674 46.4862C18.9582 47.2393 18.963 48.0728 18.6809 48.8293C18.0732 50.538 17.487 52.2629 17.017 54.0121C16.8414 54.7128 16.8469 55.4467 17.0332 56.1446C17.5464 58.0342 18.2217 59.859 18.7701 61.7297C18.9018 62.203 18.9018 62.7032 18.7701 63.1765C18.2082 65.0661 17.5275 66.9557 16.9927 68.8453C16.8212 69.4809 16.8212 70.1505 16.9927 70.7861C17.514 72.6298 18.1947 74.4276 18.7349 76.2632C18.8972 76.8329 18.9157 77.4338 18.7889 78.0124C18.2676 80.2016 17.6464 82.3692 17.0872 84.553C16.6821 86.1322 17.7004 87.1391 19.286 86.7126C20.8716 86.286 22.5058 85.7381 24.1319 85.3089C24.5723 85.2002 25.0351 85.2256 25.461 85.3818C26.7413 85.8919 27.9595 86.5668 29.2561 87.023C29.8707 87.2217 30.5323 87.2217 31.1469 87.023C32.4462 86.5749 33.6699 85.9135 34.9529 85.4033C35.3443 85.2644 35.7717 85.2644 36.1631 85.4033C37.4785 85.9189 38.7373 86.5803 40.0609 87.0608C40.6193 87.247 41.2232 87.247 41.7816 87.0608C43.1079 86.583 44.3666 85.9189 45.6794 85.4006C46.0708 85.2617 46.4981 85.2617 46.8895 85.4006C48.1726 85.9054 49.3962 86.5668 50.6955 87.0203C51.3153 87.2214 51.9828 87.2214 52.6026 87.0203C53.9532 86.5425 55.2552 85.8676 56.5977 85.3305C56.9626 85.198 57.359 85.1792 57.7349 85.2765C59.3556 85.7165 60.9763 86.2051 62.57 86.6937C63.3182 86.9204 64.1556 87.0662 64.5959 86.3535C64.9247 85.7593 65.0337 85.0684 64.9039 84.4019C64.4122 82.2046 63.7558 80.0451 63.2075 77.8585C63.1083 77.4448 63.1175 77.0124 63.2345 76.6033C63.7747 74.7974 64.315 72.9969 64.947 71.2207C65.3212 70.2793 65.3212 69.2306 64.947 68.2892C64.4068 66.9125 64.1204 65.4278 63.4938 64.0997C62.7374 62.4801 63.2885 61.1304 63.9016 59.6295C66.2895 61.0548 68.8205 61.7108 71.7351 61.3464V62.4504C71.7351 71.6445 71.7351 80.8405 71.7351 90.0382C71.7351 93.461 69.7741 95.41 66.3327 95.41H15.6475C12.1602 95.41 10.2289 93.4637 10.2289 89.9518V20.0375C10.2289 16.5283 12.1602 14.5767 15.6448 14.5767H41.1981L41.2089 14.5983Z" fill="url(#paint1_linear_21_11282)"/>
<path id="Vector_3" d="M55.8953 82.129C54.6095 82.6959 53.3345 83.287 52.0299 83.808C51.7147 83.8835 51.3831 83.8463 51.0926 83.7027C49.9419 83.2276 48.7939 82.7472 47.681 82.1911C46.7626 81.7349 45.9062 81.6512 45.0013 82.1911C44.5962 82.4259 44.0991 82.515 43.721 82.7768C41.8301 84.0753 40.0015 83.97 38.1647 82.7067C36.5034 81.5648 34.8259 81.5108 33.1296 82.6662C31.2009 83.9835 29.2993 83.9079 27.3787 82.65C26.716 82.1831 25.939 81.9044 25.1305 81.8436C24.3219 81.7827 23.5119 81.942 22.7867 82.3045C22.2465 82.5474 21.6414 82.6419 20.8716 82.8443C21.2795 81.2787 21.5874 79.848 22.0304 78.4605C22.3235 77.5651 22.2968 76.5958 21.9548 75.7179C21.501 74.4519 21.0877 73.1724 20.7311 71.8767C20.6958 71.6992 20.6992 71.5161 20.7412 71.34C20.7831 71.1639 20.8626 70.9989 20.9742 70.8563C24.5002 67.2877 28.0442 63.7371 31.6062 60.2045C32.4165 59.3947 33.3106 59.3596 34.0966 60.1424C41.3395 67.3732 48.5723 74.6139 55.7953 81.8645C55.8439 81.9157 55.8521 81.9886 55.8953 82.129Z" fill="url(#paint2_linear_21_11282)"/>
<path id="Vector_4" d="M32.8703 37.2383C34.5897 37.2383 36.2386 37.9208 37.4544 39.1358C38.6702 40.3508 39.3532 41.9986 39.3532 43.7168C39.3507 44.5678 39.1805 45.41 38.8522 46.1952C38.524 46.9805 38.0441 47.6934 37.4401 48.2933C36.8361 48.8932 36.1197 49.3682 35.3319 49.6913C34.5441 50.0145 33.7003 50.1793 32.8487 50.1765C31.1471 50.1638 29.5187 49.483 28.315 48.2811C27.1112 47.0791 26.4286 45.4524 26.4145 43.7519C26.4099 42.9005 26.5732 42.0564 26.8953 41.2681C27.2173 40.4798 27.6917 39.7627 28.2913 39.1577C28.8909 38.5528 29.6039 38.0719 30.3896 37.7425C31.1753 37.4132 32.0183 37.2418 32.8703 37.2383Z" fill="url(#paint3_linear_21_11282)"/>
<path id="Vector_5" d="M-0.999969 8.1416H5.30999V14.5203H-0.999969V8.1416Z" fill="url(#paint4_linear_21_11282)"/>
<path id="Vector_6" d="M78.2423 90.6431H84.5874V97.0028H78.2423V90.6431Z" fill="url(#paint5_linear_21_11282)"/>
</g>
<defs>
<linearGradient id="paint0_linear_21_11282" x1="105.312" y1="-14.835" x2="35.2305" y2="62.5148" gradientUnits="userSpaceOnUse">
<stop stop-color="#FFFFBF"/>
<stop offset="0.5" stop-color="#FF8610"/>
<stop offset="1" stop-color="#761C00"/>
</linearGradient>
<linearGradient id="paint1_linear_21_11282" x1="82.8173" y1="-5.99578" x2="-14.6817" y2="86.1719" gradientUnits="userSpaceOnUse">
<stop stop-color="#FFFFBF"/>
<stop offset="0.5" stop-color="#FF8610"/>
<stop offset="1" stop-color="#761C00"/>
</linearGradient>
<linearGradient id="paint2_linear_21_11282" x1="62.2355" y1="53.3987" x2="37.3496" y2="98.2241" gradientUnits="userSpaceOnUse">
<stop stop-color="#FFFFBF"/>
<stop offset="0.5" stop-color="#FF8610"/>
<stop offset="1" stop-color="#761C00"/>
</linearGradient>
<linearGradient id="paint3_linear_21_11282" x1="41.6845" y1="33.9454" x2="26.4152" y2="52.9163" gradientUnits="userSpaceOnUse">
<stop stop-color="#FFFFBF"/>
<stop offset="0.5" stop-color="#FF8610"/>
<stop offset="1" stop-color="#761C00"/>
</linearGradient>
<linearGradient id="paint4_linear_21_11282" x1="6.44692" y1="6.5182" x2="-1.09807" y2="15.7909" gradientUnits="userSpaceOnUse">
<stop stop-color="#FFFFBF"/>
<stop offset="0.5" stop-color="#FF8610"/>
<stop offset="1" stop-color="#761C00"/>
</linearGradient>
<linearGradient id="paint5_linear_21_11282" x1="85.7307" y1="89.0245" x2="78.2213" y2="98.3323" gradientUnits="userSpaceOnUse">
<stop stop-color="#FFFFBF"/>
<stop offset="0.5" stop-color="#FF8610"/>
<stop offset="1" stop-color="#761C00"/>
</linearGradient>
<clipPath id="clip0_21_11282">
<rect width="97" height="97" fill="white" transform="translate(-1)"/>
</clipPath>
</defs>
</svg>
